<?xml version="1.0" encoding="UTF-8" standalone="no"?>
<!-- Created with Inkscape (http://www.inkscape.org/) -->

<svg
   xmlns:dc="http://purl.org/dc/elements/1.1/"
   xmlns:cc="http://creativecommons.org/ns#"
   xmlns:rdf="http://www.w3.org/1999/02/22-rdf-syntax-ns#"
   xmlns:svg="http://www.w3.org/2000/svg"
   xmlns="http://www.w3.org/2000/svg"
   xmlns:sodipodi="http://sodipodi.sourceforge.net/DTD/sodipodi-0.dtd"
   xmlns:inkscape="http://www.inkscape.org/namespaces/inkscape"
   version="1.1"
   id="svg64"
   width="720"
   height="960"
   viewBox="0 0 720 960"
   sodipodi:docname="duoLogo.svg"
   inkscape:version="0.92.3 (2405546, 2018-03-11)">
  <metadata
     id="metadata70">
    <rdf:RDF>
      <cc:Work
         rdf:about="">
        <dc:format>image/svg+xml</dc:format>
        <dc:type
           rdf:resource="http://purl.org/dc/dcmitype/StillImage" />
        <dc:title></dc:title>
      </cc:Work>
    </rdf:RDF>
  </metadata>
  <defs
     id="defs68" />
  <sodipodi:namedview
     pagecolor="#ffffff"
     bordercolor="#666666"
     borderopacity="1"
     objecttolerance="10"
     gridtolerance="10"
     guidetolerance="10"
     inkscape:pageopacity="0"
     inkscape:pageshadow="2"
     inkscape:window-width="1440"
     inkscape:window-height="875"
     id="namedview66"
     showgrid="false"
     inkscape:zoom="0.67395833"
     inkscape:cx="360"
     inkscape:cy="480"
     inkscape:window-x="0"
     inkscape:window-y="0"
     inkscape:window-maximized="1"
     inkscape:current-layer="svg64" />
  <path
     style="fill:#000000"
     d="m 118.3038,832.2825 c -16.03558,-5.30887 -25.1579,-21.19589 -22.94537,-39.96058 2.30538,-19.55207 17.24828,-33.43608 39.91493,-37.08643 11.35866,-1.82926 13.58485,2.09464 3.94823,6.95919 -7.47327,3.77249 -14.38847,10.52179 -17.17417,16.76214 -3.16815,7.0971 -3.54343,19.12446 -0.81738,26.19636 2.47965,6.43266 4.39473,8.92085 9.56834,12.43176 7.53595,5.11403 15.32144,3.00171 25.02538,-6.78976 10.70455,-10.80109 19.37461,-29.79179 24.11485,-52.82058 l 1.7453,-8.47893 -7.74686,-9.42125 c -4.26077,-5.18168 -9.39026,-12.73539 -11.39886,-16.78602 -3.22991,-6.51358 -3.69846,-8.42718 -4.05403,-16.55697 -0.34406,-7.86667 -0.0794,-9.94208 1.83508,-14.3925 2.69973,-6.27569 7.46954,-10.69784 13.22143,-12.25775 3.6787,-0.99766 4.73692,-0.90061 7.71916,0.70792 7.32563,3.95124 10.3812,15.24508 9.88387,36.53229 l -0.31932,13.66821 8.51678,9.83179 c 4.68424,5.40748 10.04272,11.74467 11.90775,14.08263 l 3.39097,4.25084 3.67202,-8.75084 c 13.16513,-31.37402 45.20206,-86.07317 52.43171,-89.52075 4.71441,-2.24815 14.01464,-4.08383 16.95335,-3.34626 3.15875,0.7928 3.43767,3.6302 0.73349,7.4618 -15.62485,22.13913 -21.07489,71.02581 -12.58994,112.93149 5.69204,28.11202 16.56712,45.22288 28.74212,45.22288 3.97034,0 5.1518,1.06782 4.26676,3.85634 -0.77864,2.45328 -7.17915,4.26866 -15.05004,4.26866 -24.15122,0 -40.3718,-29.30178 -44.63155,-80.625 -1.12352,-13.53659 -0.53263,-34.5158 1.24264,-44.11909 0.567,-3.06718 0.81148,-5.79612 0.54328,-6.06431 -1.13982,-1.13983 -22.24065,40.28727 -28.66188,56.27166 l -3.24921,8.08827 4.1737,6.91173 c 6.02107,9.97102 8.37722,18.49221 7.92927,28.67686 -0.63756,14.49578 -6.84162,22.73488 -17.11939,22.73488 -5.82332,0 -9.22206,-2.81601 -10.2938,-8.52887 -0.96593,-5.14881 0.17236,-21.84782 1.91907,-28.15337 1.67295,-6.03926 2.37318,-4.58379 -9.65464,-20.06776 -7.75319,-9.98103 -9.69304,-11.74816 -9.69304,-8.82997 0,3.10017 -7.21968,26.25561 -10.543,33.81421 -7.79112,17.7202 -18.38761,29.94341 -31.89646,36.79302 -6.7965,3.44615 -9.24488,4.15561 -15.56295,4.50963 -4.12367,0.23105 -8.62259,0.0476 -9.99759,-0.40757 z m 224.99999,-40.62932 v -12.5 h 5.77749 c 7.34214,0 10.22251,1.83149 10.22251,6.5 0,4.3151 -2.93197,6.5 -8.72251,6.5 h -4.27749 v 6 c 0,4.66667 -0.33333,6 -1.5,6 -1.25333,0 -1.5,-2.05556 -1.5,-12.5 z m 11.06574,-2.53518 c 1.09756,-0.5874 1.93426,-2.08617 1.93426,-3.46482 0,-2.83492 -2.5658,-4.5 -6.93426,-4.5 -2.9668,0 -3.06574,0.14522 -3.06574,4.5 0,4.35478 0.0989,4.5 3.06574,4.5 1.68616,0 3.93616,-0.46583 5,-1.03518 z m 9.85093,8.78518 c -0.0458,-3.4375 -0.19563,-7.2625 -0.33288,-8.5 -0.14782,-1.33277 0.29381,-2.25 1.08333,-2.25 0.73308,0 1.33288,0.54 1.33288,1.2 0,0.93333 0.26667,0.93333 1.2,0 1.45092,-1.45092 5.8,-1.60089 5.8,-0.2 0,0.55 -0.675,1 -1.5,1 -3.31089,0 -5.5,3.7812 -5.5,9.5 0,3.025 -0.45,5.5 -1,5.5 -0.55111,0 -1.03741,-2.80556 -1.08333,-6.25 z m 12.53788,3.79545 c -5.5113,-5.51129 -1.58242,-14.54545 6.32568,-14.54545 5.08815,0 8.61977,3.54685 8.61977,8.65693 0,7.39269 -9.64224,11.19174 -14.94545,5.88852 z m 10.54545,-1.54545 c 1.1,-1.1 2,-3.125 2,-4.5 0,-2.73978 -3.1545,-6.5 -5.45295,-6.5 -2.92662,0 -6.4088,2.31304 -6.99433,4.64599 -1.55977,6.2146 5.99307,10.80822 10.44728,6.35401 z m 11.45455,1.54545 c -7.0337,-7.03369 1.7696,-18.24214 10.61119,-13.51027 1.82063,0.97437 1.93426,0.65127 1.93426,-5.5 0,-5.14238 0.31968,-6.53518 1.5,-6.53518 1.2619,0 1.5,2.22222 1.5,14 0,11.77778 -0.2381,14 -1.5,14 -0.825,0 -1.5,-0.46583 -1.5,-1.03518 0,-0.71358 -0.60093,-0.71358 -1.93426,0 -3.4022,1.8208 -7.98388,1.20795 -10.61119,-1.41937 z m 10.32294,-1.10215 c 4.65027,-3.25718 1.7563,-11.4433 -4.04545,-11.4433 -2.24477,0 -6.73204,4.3326 -6.73204,6.5 0,2.1674 4.48727,6.5 6.73204,6.5 1.00262,0 2.82308,-0.70052 4.04545,-1.5567 z m 11.70249,2.16572 c -2.64962,-1.93745 -3.6068,-15.60902 -1.09283,-15.60902 1.29061,0 1.61285,1.11201 1.61285,5.56574 0,8.67585 2.70421,11.56469 7.52549,8.03928 1.55487,-1.13695 1.87646,-2.52427 1.73854,-7.5 -0.13163,-4.74912 0.15341,-6.10502 1.28338,-6.10502 1.15619,0 1.45259,1.73441 1.45259,8.5 0,5 -0.41176,8.5 -1,8.5 -0.55,0 -1,-0.46583 -1,-1.03518 0,-0.71358 -0.60093,-0.71358 -1.93426,0 -2.69416,1.44187 -6.33356,1.29105 -8.58576,-0.3558 z m 19.97458,-1.06357 c -5.29041,-5.29039 -1.59429,-14.54545 5.80887,-14.54545 3.54254,0 7.7489,2.32101 6.48923,3.58068 -0.40931,0.40931 -1.94495,0.1971 -3.41254,-0.47158 -5.81296,-2.64856 -11.32302,3.21566 -7.91238,8.42095 1.91503,2.92269 4.89761,3.90138 7.55516,2.4791 2.82719,-1.51306 4.90724,-0.1332 2.47747,1.64349 -2.99925,2.19311 -8.23193,1.6667 -11.00581,-1.10719 z m 17.74545,1.25455 c -0.67937,-0.67937 -1.2,-3.93333 -1.2,-7.5 0,-5.63333 -0.21164,-6.3 -2,-6.3 -1.1,0 -2,-0.45 -2,-1 0,-0.55 0.9,-1 2,-1 1.46667,0 2,-0.66667 2,-2.5 0,-1.58711 0.56374,-2.5 1.54384,-2.5 0.84911,0 1.47079,0.5625 1.38151,1.25 -0.36181,2.78631 0.17134,3.75 2.07465,3.75 1.1,0 2,0.45 2,1 0,0.55 -0.85835,1 -1.90745,1 -1.60871,0 -1.9611,0.87695 -2.25,5.59924 -0.38505,6.29388 0.22174,7.9738 2.55653,7.07786 1.02004,-0.39143 1.60092,-0.0815 1.60092,0.85428 0,1.78478 -4.09422,1.9744 -5.8,0.26862 z m 9.8,-7.3 c 0,-6.88889 0.28431,-8.5 1.5,-8.5 1.21569,0 1.5,1.61111 1.5,8.5 0,6.88889 -0.28431,8.5 -1.5,8.5 -1.21569,0 -1.5,-1.61111 -1.5,-8.5 z m 10.45455,6.04545 c -5.5113,-5.51129 -1.58242,-14.54545 6.32568,-14.54545 5.01505,0 8.61977,3.55464 8.61977,8.5 0,7.6945 -9.467,11.52391 -14.94545,6.04545 z m 10.54545,-1.54545 c 1.1,-1.1 2,-3.125 2,-4.5 0,-3.0228 -3.23404,-6.5 -6.04545,-6.5 -2.42416,0 -6.95455,4.23429 -6.95455,6.5 0,2.26571 4.53039,6.5 6.95455,6.5 1.125,0 2.94545,-0.9 4.04545,-2 z m 10,-2.91821 c 0,-3.80502 -0.27314,-7.63002 -0.60699,-8.5 -0.39831,-1.03799 -0.0545,-1.58179 1,-1.58179 0.88385,0 1.60699,0.46583 1.60699,1.03518 0,0.71358 0.60093,0.71358 1.93426,0 2.82218,-1.51038 6.69198,-1.26608 8.49431,0.53625 1.79908,1.79908 2.30388,15.42857 0.57143,15.42857 -0.55422,0 -1,-2.64286 -1,-5.92857 0,-8.03221 -2.92332,-11.04164 -7.48534,-7.70581 -1.36432,0.99762 -1.98717,3.01871 -2.31132,7.5 -0.60389,8.34874 -2.20334,7.77974 -2.20334,-0.78383 z m 30.13824,5.30248 c -3.41901,-2.39477 -1.16872,-3.88267 2.60047,-1.71944 2.55194,1.46461 3.48944,1.55225 5.72223,0.53492 2.09548,-0.95477 2.60234,-1.80191 2.35467,-3.93552 -0.25476,-2.19468 -1.16851,-3.0328 -4.73957,-4.34727 -4.51633,-1.66241 -8.07604,-5.00048 -8.07604,-7.5732 0,-0.78907 1.10455,-2.53921 2.45455,-3.88921 2.84037,-2.84038 8.83396,-3.30749 11.97245,-0.93308 2.78696,2.10846 1.28817,2.8666 -2.76768,1.39998 -3.00338,-1.08604 -3.85102,-1.02586 -6.07486,0.43125 -1.42145,0.93138 -2.58446,2.28829 -2.58446,3.01537 0,1.89511 3.01277,4.24764 6.5,5.07553 4.36267,1.03573 6.5,3.38833 6.5,7.15468 0,2.26443 -0.69202,3.77302 -2.22251,4.84502 -2.88508,2.02079 -8.71209,1.99124 -11.63925,-0.059 z m 21.06176,0.41573 c -0.67937,-0.67937 -1.2,-3.93333 -1.2,-7.5 0,-5.63333 -0.21164,-6.3 -2,-6.3 -1.1,0 -2,-0.45 -2,-1 0,-0.55 0.9,-1 2,-1 1.46667,0 2,-0.66667 2,-2.5 0,-1.55556 0.56667,-2.5 1.5,-2.5 0.825,0 1.44671,0.3375 1.38158,0.75 -0.42589,2.69728 0.34807,4.25 2.11842,4.25 1.1,0 2,0.45 2,1 0,0.55 -0.9,1 -2,1 -1.79849,0 -2,0.66667 -2,6.61663 0,6.1243 0.14882,6.57772 2,6.09362 1.29986,-0.33992 2,-0.0307 2,0.88337 0,1.72587 -4.13343,1.87295 -5.8,0.20638 z m 11.27998,-0.19098 c -2.64962,-1.93745 -3.6068,-15.60902 -1.09283,-15.60902 1.2987,0 1.61285,1.13146 1.61285,5.80887 0,7.07815 1.59788,9.75985 5.26671,8.83904 3.1272,-0.78488 4.93459,-5.44146 4.22987,-10.89791 -0.37144,-2.87597 -0.13614,-3.75 1.00955,-3.75 1.20799,0 1.49387,1.62661 1.49387,8.5 0,5 -0.41176,8.5 -1,8.5 -0.55,0 -1,-0.46583 -1,-1.03518 0,-0.71358 -0.60093,-0.71358 -1.93426,0 -2.69416,1.44187 -6.33356,1.29105 -8.58576,-0.3558 z m 19.97457,-1.06357 c -7.0337,-7.03369 1.7696,-18.24214 10.61119,-13.51027 1.82063,0.97437 1.93426,0.65127 1.93426,-5.5 0,-5.14238 0.31968,-6.53518 1.5,-6.53518 1.2619,0 1.5,2.22222 1.5,14 0,11.77778 -0.2381,14 -1.5,14 -0.825,0 -1.5,-0.46583 -1.5,-1.03518 0,-0.71358 -0.60093,-0.71358 -1.93426,0 -3.4022,1.8208 -7.98388,1.20795 -10.61119,-1.41937 z m 10.32294,-1.10215 c 1.56004,-1.0927 2.22251,-2.57619 2.22251,-4.97695 0,-7.55129 -10.66782,-8.62234 -12.51649,-1.25666 -0.52692,2.09942 -0.1154,3.24933 1.87526,5.23999 2.92994,2.92993 5.26138,3.2051 8.41872,0.99362 z m 11.22251,-4.9433 c 0,-6.88889 0.28431,-8.5 1.5,-8.5 1.21569,0 1.5,1.61111 1.5,8.5 0,6.88889 -0.28431,8.5 -1.5,8.5 -1.21569,0 -1.5,-1.61111 -1.5,-8.5 z m 9.45455,6.04545 c -5.34921,-5.3492 -1.59101,-14.54545 5.94423,-14.54545 5.11261,0 9.00122,3.67208 9.00122,8.5 0,7.5454 -9.57316,11.41775 -14.94545,6.04545 z m 10.54545,-1.54545 c 1.1,-1.1 2,-3.125 2,-4.5 0,-3.0228 -3.23404,-6.5 -6.04545,-6.5 -2.42416,0 -6.95455,4.23429 -6.95455,6.5 0,2.26571 4.53039,6.5 6.95455,6.5 1.125,0 2.94545,-0.9 4.04545,-2 z m 9.53835,2.6517 c -2.83499,-2.07299 -0.9967,-3.99813 1.96483,-2.05766 2.91508,1.91004 6.49682,1.01906 6.49682,-1.61611 0,-1.37093 -0.97317,-2.06987 -3.55686,-2.55457 -2.14856,-0.40308 -4.18043,-1.61897 -5.1318,-3.07094 -1.44906,-2.21155 -1.43213,-2.56147 0.21185,-4.37804 2.14851,-2.37408 7.68247,-2.63643 9.49687,-0.45021 1.71514,2.06662 0.62896,2.89354 -1.97219,1.50145 -2.52785,-1.35286 -6.04787,-0.4666 -6.04787,1.52272 0,0.77745 1.2375,1.70066 2.75,2.05158 4.13269,0.95881 7.25,3.22398 7.25,5.26815 0,4.34205 -7.37051,6.77515 -11.46165,3.78363 z M 467.99765,781.5137 c -0.93324,-0.93324 0.19452,-2.36052 1.86517,-2.36052 0.79254,0 1.44098,0.675 1.44098,1.5 0,1.50623 -2.11099,2.05568 -3.30615,0.86052 z m 135,0 c -0.93324,-0.93324 0.19452,-2.36052 1.86517,-2.36052 0.79254,0 1.44098,0.675 1.44098,1.5 0,1.50623 -2.11099,2.05568 -3.30615,0.86052 z M 291.394,763.88844 c -7.41468,-3.80077 -8.87262,-18.44905 -4.56685,-45.88411 2.14996,-13.69887 2.46378,-17.6421 1.5238,-19.14724 -2.49906,-4.00164 5.31197,-8.03867 11.21279,-5.79518 1.50652,0.57278 3.66966,2.51514 4.80697,4.31634 3.0507,4.83154 2.19396,17.22778 -2.4517,35.47406 -1.98837,7.80952 -3.61522,16.27832 -3.61522,18.81955 0,4.21956 0.19521,4.5927 2.25,4.30087 2.86901,-0.40746 8.08216,-10.58111 13.10869,-25.58206 l 3.59792,-10.73749 0.0851,7 c 0.0695,5.72244 0.26776,6.54373 1.08603,4.5 1.59061,-3.97278 4.65665,-17.8823 4.07087,-18.46807 -0.29258,-0.29256 -1.33269,-0.53193 -2.31138,-0.53193 -1.67569,0 -1.68956,-0.30607 -0.23795,-5.25 2.35452,-8.01907 7.24932,-16.49077 11.88646,-20.57254 4.3226,-3.80491 12.09511,-7.19384 16.46426,-7.17867 3.62771,0.0126 8.84507,3.53575 9.58157,6.47019 1.50684,6.00373 -2.22126,9.87255 -6.57495,6.82311 -1.66096,-1.16339 -1.98406,-2.1183 -1.48523,-4.38947 0.86183,-3.92391 -1.51798,-3.88382 -4.85481,0.0818 -7.54204,8.9632 -13.09275,38.18571 -9.51897,50.11394 1.55106,5.17697 5.00025,8.33235 8.22381,7.52329 5.11515,-1.28382 11.36346,-20.45878 15.53157,-47.66367 1.13406,-7.40188 3.19036,-20.65796 4.56956,-29.45796 3.32799,-21.23426 4.53154,-33.62305 3.46083,-35.62413 -1.99877,-3.73554 6.59713,-7.14141 12.18364,-4.8274 8.33309,3.45168 7.90592,16.46898 -2.13306,65.00064 -7.23598,34.98103 -8.20411,45.51326 -4.113,44.74506 2.05002,-0.38493 7.17583,-9.85721 10.98196,-20.29417 1.65625,-4.54169 4.13205,-15.2724 5.72719,-24.82303 2.35192,-14.08173 2.60029,-17.15846 1.52419,-18.88157 -1.99471,-3.19404 1.6227,-6.2954 7.34291,-6.2954 5.34012,0 9.20567,3.13278 10.16315,8.23657 l 0.64098,3.4167 2.54279,-4.32664 c 8.47474,-14.42 17.5699,-18.73181 24.01889,-11.38681 6.04057,6.87983 6.49966,18.22709 1.70128,42.0504 -2.02835,10.07048 -2.3743,13.52164 -1.53916,15.35457 0.98531,2.16252 1.26711,2.24402 3.30108,0.95479 2.91308,-1.84648 8.23832,-12.48355 12.31494,-24.59888 l 3.26414,-9.7007 -0.56415,8 c -0.31029,4.4 -0.27589,7.73566 0.0764,7.41258 0.80335,-0.73667 5.11073,-15.13214 6.03691,-20.17564 0.55003,-2.99521 0.35462,-3.89215 -0.95765,-4.39571 -0.92172,-0.3537 -2.08225,-0.0172 -2.63196,0.76305 -0.70328,0.99829 -0.84061,0.54146 -0.48228,-1.60428 2.31964,-13.89049 2.78631,-19.4093 1.79748,-21.25694 -0.83831,-1.56641 -0.68516,-2.33573 0.71772,-3.60532 4.48739,-4.06103 11.80695,-2.81667 15.21912,2.58733 3.0507,4.83154 2.19396,17.22778 -2.4517,35.47406 -1.98833,7.8095 -3.61518,16.2783 -3.61518,18.81953 0,4.21956 0.19521,4.5927 2.25,4.30087 2.87739,-0.40865 8.11084,-10.63853 13.07935,-25.56632 l 3.56859,-10.72174 0.30103,6.98425 0.30103,6.98426 2.1873,-8 c 3.17434,-11.61011 3.23771,-12.93949 0.63446,-13.31015 -2.14775,-0.3058 -2.15669,-0.38277 -0.63847,-5.5 4.63951,-15.63774 14.37833,-25.8154 26.22241,-27.40403 4.26605,-0.57219 9.4284,1.60142 11.06466,4.65879 1.87742,3.50801 1.26389,8.02899 -1.22036,8.99249 -3.42484,1.3283 -6.31091,-1.00172 -5.99619,-4.84094 0.57869,-7.05945 -6.08992,-1.15924 -9.75186,8.62818 -6.19677,16.56234 -7.78819,36.04146 -3.6347,44.4889 3.37468,6.86349 8.29035,6.22988 12.10149,-1.55982 6.50361,-13.29289 13.71872,-52.37969 11.1404,-60.35143 -0.5761,-1.78118 -0.14177,-2.49232 2.29031,-3.75 6.80199,-3.51744 14.01369,-0.73056 15.72192,6.07556 1.03385,4.1192 -1.18941,23.04086 -5.18818,44.15543 -1.93291,10.20629 -3.38362,19.19843 -3.22379,19.98252 0.48654,2.38689 9.46063,-13.61775 13.79112,-24.59544 2.24122,-5.68147 4.97412,-14.11592 6.07311,-18.74322 3.46503,-14.58964 11.05037,-62.54667 11.35963,-71.81937 0.27296,-8.1841 0.48659,-8.99784 2.68166,-10.21456 4.27631,-2.37034 8.76951,-1.72813 11.98387,1.71285 2.66051,2.84808 2.90121,3.71977 2.90121,10.50658 0,7.28922 -1.57375,19.70077 -4.35645,34.35764 -1.32014,6.95335 -1.30499,7.32335 0.21911,5.34981 0.90054,-1.16609 2.92236,-3.7756 4.49294,-5.7989 8.50141,-10.95193 18.57027,-9.46346 22.27881,3.29347 2.01541,6.93276 1.36246,20.43098 -1.60529,33.18564 -2.14122,9.20247 -2.61357,17.52075 -1.04979,18.48723 3.30487,2.04252 8.56689,-6.91772 14.39726,-24.51585 2.28947,-6.91045 4.34702,-16.42249 6.05051,-27.97138 1.4197,-9.625 3.17724,-21.2125 3.90563,-25.75 0.72839,-4.5375 1.01002,-8.25 0.62585,-8.25 -1.93039,0 -21.73129,6.35356 -25.00358,8.02296 -4.80392,2.45078 -7.955,6.45623 -7.955,10.1119 0,4.5377 -4.03289,3.53902 -5.93744,-1.47031 -5.10413,-13.42488 5.73825,-21.90614 34.16051,-26.72145 6.57651,-1.1142 6.73716,-1.2142 7.36998,-4.58742 0.35581,-1.89661 0.44122,-5.92887 0.18981,-8.96058 -0.43292,-5.22048 -0.3096,-5.58847 2.33035,-6.95364 8.34883,-4.31735 15.85877,1.73958 15.88121,12.80854 0.007,3.23283 1.04354,3.38149 8.93598,1.28105 12.85707,-3.42168 22.0696,-8.27662 22.0696,-11.63053 0,-2.49358 2.24007,-3.37759 4.92186,-1.94234 7.55299,4.04224 -5.29623,14.28944 -27.68546,22.07906 -7.2603,2.52599 -9.3572,3.68142 -9.69638,5.34287 -11.86278,58.10907 -15.02527,80.65982 -11.41402,81.39001 3.00328,0.60725 11.73971,-18.26876 15.42262,-33.32225 2.33459,-9.54237 3.16041,-11.44787 4.96133,-11.44787 2.58298,0 2.69861,2.34991 0.53299,10.83183 -6.18354,24.21852 -15.54672,41.23405 -23.51228,42.7284 -6.4242,1.20518 -11.46952,-3.38696 -13.06498,-11.89147 l -0.70578,-3.76212 -3.84248,7.89647 c -3.88382,7.9814 -10.22578,15.08501 -13.6703,15.31204 -5.69083,0.37509 -8.20624,-1.27572 -11.60353,-7.61515 -3.18935,-5.95143 -2.91293,-20.82688 0.71015,-38.21549 2.12735,-10.21003 2.50439,-13.68108 1.65792,-15.26272 -0.82374,-1.53918 -1.51949,-1.81869 -2.80365,-1.12633 -10.3265,5.56763 -23.0178,41.46173 -22.05196,62.36836 0.27251,5.8988 0.0359,7.12263 -1.60942,8.32574 -6.12551,4.47908 -13.48798,-1.70286 -13.58255,-11.40466 -0.0346,-3.54649 -0.16778,-3.40376 -3.54646,3.79995 -4.35902,9.29391 -8.53345,16.00943 -14.06816,22.63182 -4.19434,5.01861 -4.32274,5.39588 -6.70024,19.68744 -2.66285,16.00683 -4.0467,19.0279 -10.61556,23.17464 -8.5068,5.37011 -18.14094,5.56782 -23.23199,0.47677 -5.71578,-5.71578 -3.22277,-11.97384 8.77046,-22.01592 8.71405,-7.29638 9.89739,-9.19872 10.82222,-17.39782 0.36964,-3.27702 0.94313,-7.10202 1.27444,-8.5 l 0.60238,-2.54178 -2.88559,2.62781 c -4.41076,4.01675 -7.2623,5.13636 -12.95158,5.08524 -8.61755,-0.0774 -12.64277,-3.00584 -16.83934,-12.25085 -1.3637,-3.00421 -2.50537,-4.7634 -2.53705,-3.9093 -0.11247,3.03166 -7.95311,17.82567 -11.56802,21.82694 -7.98689,8.84054 -17.52571,5.18956 -20.10247,-7.69422 -0.55896,-2.79482 -0.86021,-2.44388 -4.99889,5.82353 -7.1776,14.33795 -14.17194,18.40951 -21.30874,12.40429 -6.62797,-5.57707 -7.67863,-19.96461 -3.07693,-42.13479 2.24315,-10.80708 2.32712,-17.35144 0.23146,-18.04001 -4.31351,-1.41728 -15.73722,20.25772 -20.16548,38.26136 -4.19299,17.04712 -5.30392,24.75072 -4.04632,28.05847 0.82496,2.1698 0.69348,3.09818 -0.6488,4.58138 -3.89368,4.30248 -12.38495,0.19977 -14.03604,-6.78175 l -0.85816,-3.62866 -4.09326,6.88528 c -8.30959,13.97755 -17.9395,15.30163 -23.35268,3.2109 l -1.73911,-3.88443 -1.77346,4.64373 c -2.34663,6.14456 -8.9458,12.91254 -13.91351,14.26943 -4.86534,1.32893 -12.40433,-0.12033 -16.2138,-3.11685 -1.47826,-1.1628 -3.95087,-4.84193 -5.49469,-8.17584 -1.54382,-3.33391 -2.82759,-5.354 -2.85283,-4.48908 -0.0252,0.86492 -2.0023,5.58992 -4.39346,10.5 -6.7363,13.83249 -13.47016,18.79807 -20.56222,15.16268 z m 220.8771,-12.54871 c 1.97599,-1.97599 3.15842,-4.58054 3.97238,-8.75 0.63741,-3.2651 1.42219,-7.28647 1.74395,-8.93636 0.55773,-2.85992 0.24063,-2.69113 -6.79931,3.61915 -4.06137,3.64044 -7.82516,7.84969 -8.36397,9.35391 -0.85158,2.3774 -0.61551,3.04814 1.80577,5.13084 3.53956,3.04461 4.21599,3.00764 7.64118,-0.41754 z M 58.803796,738.48557 c -17.48279,-2.14426 -29.10147,-11.366 -34.54116,-27.41531 -2.81333,-8.30049 -2.40042,-23.40415 0.87011,-31.82732 4.95063,-12.75024 13.86382,-21.54478 24.49947,-24.17335 6.22043,-1.53736 17.29717,-0.61796 23.01222,1.91007 5.06837,2.24199 12.173524,8.33332 14.127314,12.11154 1.76219,3.40771 2.91979,11.38095 2.11683,14.58019 -0.94964,3.78368 -6.09882,6.47362 -12.400524,6.47805 -8.00333,0.006 -9.53564,-1.16745 -8.71069,-6.66857 1.02186,-6.81425 -0.19925,-11.64721 -4.09182,-16.1948 -10.9279,-12.7668 -29.9539,0.42143 -33.50391,23.22385 -2.56106,16.4502 5.13406,31.80367 18.95249,37.81442 6.72614,2.92574 19.13398,3.56255 26.67871,1.36923 8.887014,-2.58352 15.268514,-6.18659 21.522414,-12.15179 8.00622,-7.63665 11.21481,-14.58308 11.76403,-25.46851 0.85337,-16.91368 -4.77949,-31.30465 -25.21505,-64.42009 -18.611974,-30.16036 -23.464144,-42.1337 -22.267524,-54.94801 1.35379,-14.49739 10.3202,-22.66747 26.530244,-24.17403 18.94833,-1.76106 41.06379,10.53114 49.39533,27.45489 2.8934,5.87733 3.26152,7.56841 3.26152,14.98271 0,7.88018 -0.15732,8.49293 -2.75394,10.72645 -3.36992,2.89868 -8.84274,4.03748 -13.64673,2.83965 -3.08159,-0.76836 -3.54954,-1.25593 -3.25316,-3.38956 0.19039,-1.37065 0.41539,-6.9921 0.5,-12.4921 0.13367,-8.6896 -0.14669,-10.56283 -2.13948,-14.29506 -5.49873,-10.29837 -15.39557,-16.97946 -23.53488,-15.88775 -4.77183,0.64004 -5.63652,1.81397 -5.6565,7.6794 -0.0331,9.71092 9.40827,30.92971 24.58414,55.25123 17.38461,27.86134 23.34031,42.40606 24.17882,59.04836 0.60505,12.00867 -1.31097,20.12355 -6.73163,28.51036 -10.15187,15.70693 -30.0234,25.68954 -58.020414,29.147 -8.44385,1.04277 -9.83611,1.07674 -15.52623,0.37885 z M 295.74869,684.0849 c -1.68031,-0.48834 -4.13306,-2.03534 -5.45057,-3.43776 -2.25154,-2.39665 -2.32866,-2.86364 -1.28347,-7.77191 1.93868,-9.10418 2.8788,-10.72205 6.23046,-10.72205 4.2238,0 9.66425,2.83891 10.98171,5.73041 0.83087,1.82356 0.80971,4.03254 -0.0825,8.61117 -1.63581,8.39469 -3.34171,9.64022 -10.39564,7.59014 z M 161.33382,664.87387 c -3.11249,-1.57494 -6.67197,-6.80347 -8.25224,-12.12173 -2.18498,-7.35335 -1.38315,-24.4848 2.18032,-46.58368 2.69223,-16.69591 3.09446,-21.03769 2.17471,-23.47439 -0.96166,-2.54772 -0.84548,-3.27266 0.78591,-4.90405 2.68997,-2.68997 11.23253,-3.42298 14.55109,-1.24858 8.98834,5.88939 9.2024,16.77061 0.99056,50.35177 -4.97759,20.35514 -5.68578,28.25997 -2.5318,28.25997 1.06072,0 2.65693,-0.72835 3.54714,-1.61857 4.22269,-4.22269 13.73661,-27.32608 17.60614,-42.75439 1.42631,-5.68689 2.49469,-8.31561 3.03011,-7.45553 0.67092,1.07774 1.21027,1.09095 2.85753,0.07 2.74225,-1.6996 2.68408,-0.19985 -0.4453,11.48082 -9.99164,37.29466 -23.91143,56.36528 -36.49417,49.99834 z m 37.42196,-10.15363 c -1.23203,-1.88032 -1.34563,-2.89726 -0.50013,-4.47708 1.61154,-3.0112 4.64673,-4.37518 6.96956,-3.13204 1.61293,0.86321 2.38778,0.42734 4.82613,-2.71481 3.65646,-4.71187 8.44466,-12.77759 15.69099,-26.43151 l 5.67249,-10.68838 -6.10666,-14.31162 c -6.64501,-15.57333 -10.2206,-21.81162 -12.5017,-21.81162 -2.14198,0 -6.0846,8.45867 -9.29954,19.95163 -2.21292,7.9109 -3.0685,9.78299 -4.0311,8.82039 -0.92003,-0.92003 -1.66831,-0.94318 -3.02859,-0.0937 -1.58989,0.9929 -1.42661,-0.26995 1.36079,-10.52504 5.5593,-20.45311 8.50459,-25.22789 17.10366,-27.72771 5.58162,-1.62262 8.63819,-1.27013 14.52033,1.67448 3.87057,1.93762 11.11643,9.55449 13.54234,14.23575 l 1.46958,2.83583 4.97894,-8.68334 c 7.44965,-12.9923 9.64991,-16.2824 14.16361,-21.17919 7.19735,-7.8082 13.63159,-9.29501 15.77925,-3.64623 1.28738,3.38607 -1.10902,7.33709 -4.45013,7.33709 -5.11175,0 -11.39879,7.85367 -20.54783,25.66804 -4.0556,7.89676 -5.00476,10.57726 -4.24921,12 0.53507,1.00758 3.77228,9.70696 7.19379,19.33196 6.64269,18.68642 8.32753,21.79588 10.72973,19.80224 4.10488,-3.40675 14.58785,-28.58676 18.23579,-43.80224 1.2527,-5.225 2.86111,-10.12403 3.57424,-10.88674 1.88415,-2.01515 4.45168,-0.60859 4.45168,2.43874 0,6.49413 -8.63695,33.79273 -14.20016,44.88211 -9.95424,19.8422 -19.92601,24.06809 -31.12041,13.18838 -2.45562,-2.38658 -6.45832,-7.74485 -8.8949,-11.90726 l -4.43014,-7.56802 -5.92719,10.46192 c -13.86726,24.47673 -25.79767,34.85984 -30.97521,26.95793 z m 266.64168,-12.8735 c -1.87348,-0.65646 -4.32177,-2.42828 -5.44063,-3.93738 -1.88916,-2.54805 -1.93945,-3.11882 -0.70487,-8 2.55954,-10.11967 2.54207,-10.0979 7.55557,-9.41072 9.02074,1.23643 11.2097,4.71428 9.17607,14.57912 -1.64503,7.97984 -3.58686,9.22148 -10.58614,6.76898 z M 343.52705,620.48199 c -0.7022,-0.28232 -2.22254,-2.36724 -3.37853,-4.63316 -1.88879,-3.70233 -2.04824,-5.28919 -1.57338,-15.65776 0.29063,-6.34584 1.75626,-19.3176 3.25695,-28.82614 1.5007,-9.50853 2.46299,-17.5538 2.13843,-17.87836 -0.72893,-0.72892 -7.90421,1.03524 -14.98346,3.68393 -6.43295,2.40687 -9.68327,5.24746 -9.68327,8.46262 0,1.32111 -0.52288,2.72518 -1.16195,3.12015 -1.88767,1.16664 -4.83805,-3.45343 -4.83805,-7.57602 0,-7.70773 7.32762,-12.55557 23.61481,-15.6232 l 9.38519,-1.76766 0.15133,-3.5666 c 0.0832,-1.96164 0.19573,-5.12494 0.25,-7.02956 0.0748,-2.62568 0.70312,-3.77641 2.59867,-4.75942 5.61953,-2.91422 11,1.1618 11,8.33315 0,5.25169 0.12073,5.27319 10.69838,1.90495 9.67221,-3.07993 14.30162,-5.83169 14.30162,-8.50103 0,-2.24024 1.95526,-2.65944 3.8,-0.8147 4.34198,4.34198 -4.68703,11.18752 -22.8,17.28633 -5.37346,1.80929 -6.55312,2.60674 -6.8065,4.60114 -0.16858,1.32689 -2.53108,13.72834 -5.25,27.55878 -5.1028,25.95657 -6.05513,35.35375 -3.58283,35.35375 3.11112,0 11.11194,-19.42962 12.76533,-31 2.27306,-15.90686 13.12753,-29 24.04158,-29 3.98704,0 8.06472,4.14281 7.647,7.76912 -0.26469,2.29774 -0.79041,2.73088 -3.31458,2.73088 -2.62481,0 -2.99475,-0.34808 -2.958,-2.78327 0.0287,-1.89785 -0.41482,-2.69315 -1.39402,-2.5 -6.57868,1.2977 -13.67069,30.5246 -9.99386,41.1857 1.61712,4.68891 4.06809,6.55768 6.59588,5.0291 2.41896,-1.46276 5.9251,-8.62066 7.3572,-15.01996 1.12595,-5.03128 1.06804,-5.45004 -0.9859,-7.12843 -3.24745,-2.65368 -3.89434,-8.5101 -1.23387,-11.17057 1.16191,-1.16191 2.98705,-2.11257 4.05587,-2.11257 2.4955,0 5.0567,3.65817 5.0567,7.22251 0,3.44929 1.45864,3.5094 6.2445,0.25732 2.36573,-1.60756 4.01185,-3.68978 4.5457,-5.75 1.00692,-3.88582 3.58743,-4.28419 4.01275,-0.61948 0.4191,3.6112 -3.69053,8.19829 -10.19685,11.38154 -5.07605,2.48348 -5.3738,2.85197 -6.98388,8.6431 -3.8672,13.90955 -10.38608,21.86794 -17.90702,21.86127 -5.56295,-0.005 -10.01861,-2.85008 -12.33922,-7.87915 -1.03179,-2.23603 -2.10098,-4.06502 -2.37598,-4.06443 -0.275,6e-4 -1.83276,2.98295 -3.46169,6.62746 -4.88918,10.93886 -10.24327,15.08976 -16.31505,12.64867 z M 510.8038,589.02473 c -3.3,-1.11612 -10.275,-3.1265 -15.5,-4.46751 -20.29815,-5.20957 -21.35651,-5.90559 -45.47108,-29.90404 -20.58176,-20.48263 -27.1119,-28.03811 -29.58547,-34.23085 -1.26741,-3.17303 -3.34817,-7.33611 -4.62392,-9.25128 -1.27575,-1.91518 -2.31954,-4.03882 -2.31954,-4.71921 0,-1.2001 -3.18949,-8.26003 -5.10444,-11.29866 -0.51992,-0.825 -2.32795,-4.2 -4.01784,-7.5 -1.6899,-3.3 -3.69707,-7.125 -4.46039,-8.5 -0.76331,-1.375 -1.39448,-3.19017 -1.40259,-4.03372 -0.008,-0.84355 -1.58974,-3.97837 -3.51474,-6.96628 -1.925,-2.98791 -3.5,-5.92787 -3.5,-6.53326 0,-0.60539 -1.34495,-3.73054 -2.98877,-6.94479 -2.26499,-4.42882 -2.71967,-6.16833 -1.87756,-7.18301 1.40206,-1.68938 3.85366,-1.6644 6.1291,0.0624 1.55192,1.17776 2.23971,0.86085 5.75,-2.64945 3.62948,-3.62948 5.13793,-6.77014 3.23723,-6.74006 -0.4125,0.007 -3.225,0.67619 -6.25,1.48813 -7.6736,2.05968 -11.21862,1.87494 -19.18861,-1 -4.7405,-1.70999 -9.04477,-2.50694 -13.62099,-2.52196 -4.3238,-0.0142 -8.12506,-0.67361 -10.74621,-1.86417 -5.09808,-2.31562 -10.93519,-9.01694 -11.23056,-12.8933 -0.12278,-1.6114 -1.60043,-6.93274 -3.28365,-11.8252 -5.88325,-17.10026 -7.9004,-23.91821 -7.95724,-26.89537 -0.0505,-2.6474 -0.32506,-2.35357 -2.33566,2.5 -1.82072,4.39518 -2.19231,6.82864 -1.84988,12.11422 0.23567,3.63782 -0.0233,7.46282 -0.5755,8.5 -0.70641,1.32681 -0.45415,5.14631 0.85102,12.88578 3.07935,18.26011 3.09801,18.42394 1.76478,15.5 -0.62696,-1.375 -1.04114,-2.92298 -0.9204,-3.43995 0.12074,-0.51697 -0.46506,-2.76697 -1.30179,-5 -0.83672,-2.23303 -2.26004,-7.43505 -3.16293,-11.56005 -0.90289,-4.125 -2.28216,-8.5125 -3.06505,-9.75 -1.25195,-1.97893 -1.21778,-2.56387 0.28359,-4.85526 1.53903,-2.34884 1.57864,-3.35765 0.40251,-10.25 -1.75406,-10.27913 -1.83679,-14.43829 -0.88236,-44.35941 0.71899,-22.53995 1.07871,-26.36718 2.91364,-31 2.63689,-6.65756 3.07017,-9.76519 3.17681,-22.78533 0.0935,-11.41083 -0.67564,-17.96705 -3.1673,-27 -3.17085,-11.4952 -4.0456,-14.09217 -5.67686,-16.85369 -4.78304,-8.09704 -18.02407,-6.9195 -28.60303,2.54372 -2.37838,2.12754 -5.44933,4.35528 -6.82433,4.95054 -3.89217,1.68503 -9.48155,3.35947 -11.21401,3.35947 -1.60073,0 -2.78599,1.9756 -2.78599,4.64371 0,0.81408 -1.1538,3.91908 -2.564,6.9 -2.08733,4.41225 -2.43896,6.25373 -1.8914,9.90516 0.45502,3.03428 1.2497,4.66846 2.45646,5.05147 2.42899,0.77093 3.73824,4.67608 4.35827,12.99966 0.28679,3.85 1.48578,9.925 2.66441,13.5 1.17864,3.575 2.29604,7.175 2.48311,8 0.18707,0.825 0.43081,1.6125 0.54164,1.75 0.11083,0.1375 0.29662,0.5875 0.41288,1 1.06056,3.76324 1.69704,4.19231 3.99005,2.68987 2.69522,-1.76597 3.64461,-0.93741 5.48941,4.79075 0.99751,3.09729 1.84462,3.90379 4.98993,4.75074 4.41081,1.1877 12.98009,-0.10508 16.35208,-2.46692 2.68933,-1.88367 5.71716,-1.96414 5.71716,-0.15194 0,3.06478 -6.94366,10.10755 -12,12.17128 -0.825,0.33672 -2.28139,1.02937 -3.23643,1.53922 -0.95504,0.50985 -2.58758,0.927 -3.62788,0.927 -2.53218,0 -8.5415,-2.56349 -9.82741,-4.19222 -0.92119,-1.16679 -2.44735,-5.61311 -2.85158,-8.30778 -0.34871,-2.32462 -1.73112,-4.44843 -2.56148,-3.93524 -1.56915,0.96979 -0.96414,7.40427 1.16061,12.34338 1.47443,3.4274 2.95916,5.17666 5.25,6.18538 2.4084,1.06049 3.2746,2.14448 3.52112,4.40648 0.17982,1.65 0.74232,3.4275 1.25,3.95 0.50768,0.5225 0.92008,2.9975 0.91644,5.5 -0.004,2.5025 0.5251,8.0432 1.17496,12.31267 1.14154,7.49971 1.10601,7.83307 -1.04896,9.84073 -2.12716,1.98175 -2.15361,2.19542 -0.57082,4.61107 1.31853,2.01233 1.43273,3.03116 0.55556,4.95633 -0.60727,1.33282 -1.11844,3.63963 -1.13593,5.12625 -0.0175,1.48662 -0.6925,3.57646 -1.5,4.64408 -1.97902,2.61649 -1.88566,3.09084 1.16501,5.91958 2.0243,1.87704 2.48594,3.02843 1.99633,4.97919 -0.36708,1.46254 -0.16605,2.82852 0.47451,3.22441 0.69741,0.43102 0.87488,2.16598 0.47644,4.65767 -0.81766,5.11341 0.25366,10.77715 2.17824,11.51568 0.82841,0.31789 2.34049,0.057 3.36017,-0.57984 1.01968,-0.6368 2.79137,-1.15782 3.93708,-1.15782 3.10783,0 2.21538,4.23718 -1.05388,5.0036 -1.60777,0.3769 -2.67683,1.46057 -3,3.04099 -0.27616,1.35048 -1.32839,3.67312 -2.3383,5.16143 -1.0099,1.48832 -1.58301,3.11568 -1.27358,3.61636 0.30944,0.50068 -0.32677,1.71521 -1.4138,2.69896 -2.95308,2.6725 -2.42702,3.78577 1.4456,3.05927 4.39908,-0.82528 5.38673,0.78154 1.90986,3.10719 -1.4901,0.99671 -5.32436,4.47727 -8.52058,7.73459 -4.2424,4.32349 -5.8113,6.66617 -5.8113,8.67742 0,3.05314 -3.23316,6.13459 -8.9379,8.51851 -4.24601,1.77434 -14.03563,8.08442 -16.0621,10.35311 -1.70066,1.90395 -7.20663,3.65353 -14.37141,4.56667 -3.32335,0.42356 -5.58427,1.39006 -7.11466,3.04138 -1.41678,1.52873 -3.3533,2.42052 -5.25615,2.42052 -3.86165,0 -5.42418,1.91796 -4.66302,5.72374 0.66839,3.34195 -0.2753,3.83218 -8.06019,4.18713 -3.09766,0.14123 -4.53732,0.86583 -6.57878,3.31116 l -2.61334,3.13037 -6.92122,-1.34113 c -3.80667,-0.73763 -12.54622,-1.4306 -19.42122,-1.53994 -11.82703,-0.18811 -13.29888,-0.4504 -27.33855,-4.87184 -27.32618,-8.6057 -41.50183,-14.36033 -47.60885,-19.32689 -3.05393,-2.48363 -6.29118,-5.63491 -7.1939,-7.00285 -0.90271,-1.36793 -2.82236,-3.26193 -4.26589,-4.20887 -1.44353,-0.94694 -5.37405,-6.37206 -8.73448,-12.05582 l -6.109884,-10.33412 0.55435,-9.58547 c 0.3049,-5.27201 1.89056,-15.35898 3.523704,-22.41549 2.2513,-9.72752 2.8389,-14.26844 2.42995,-18.77841 -0.29666,-3.27162 -0.92572,-6.18717 -1.39792,-6.479 -0.47219,-0.29183 -0.85853,-2.50249 -0.85853,-4.91257 0,-2.41008 -0.45,-4.66008 -1,-5 -1.940234,-1.19913 -0.961284,-3.14804 2.38214,-4.74241 2.78171,-1.3265 3.46863,-2.29142 3.86929,-5.43521 0.65438,-5.13459 -0.45154,-6.07424 -4.74142,-4.02855 -3.168294,1.51086 -3.510014,2.07195 -3.510014,5.76332 0,3.34967 -0.31521,4.02879 -1.74239,3.75395 -3.08604,-0.59432 -4.21636,-5.04937 -4.44652,-17.52549 -0.26015,-14.10232 0.46929,-15.87378 8.136134,-19.75886 2.70118,-1.3688 5.22129,-2.99039 5.60024,-3.60355 0.43873,-0.70988 2.23889,-0.88241 4.95583,-0.47498 4.19648,0.6293 4.3429,0.5508 8.88177,-4.762 6.32858,-7.40768 6.02541,-9.83927 -2.13506,-17.12468 -6.37923,-5.69517 -5.55555,-8.58018 1.80856,-6.33461 5.99006,1.82658 12.94277,9.68939 12.9377,14.63122 -0.005,4.47591 -2.6752,9.03245 -7.41112,12.64471 -1.97183,1.50398 -3.57017,3.24361 -3.55187,3.86583 0.0605,2.05871 3.75305,5.63131 5.82032,5.63131 1.11815,0 2.72267,0.98464 3.5656,2.18809 1.16271,1.66 2.73324,2.25962 6.50731,2.48443 2.7361,0.16298 5.2485,-0.14666 5.58313,-0.6881 0.7973,-1.29007 9.19152,-1.27698 9.99037,0.0156 0.80507,1.30263 5.5,1.30174 5.5,-0.001 0,-0.55058 -2.71067,-3.10607 -6.02371,-5.67888 -5.23025,-4.06165 -7.13038,-6.64636 -4.70129,-6.39508 0.39875,0.0412 1.5125,0.0767 2.475,0.0787 1.82509,0.004 4.74922,1.74903 12.13926,7.24476 2.91571,2.16832 4.48214,4.1354 4.66595,5.85935 0.609,5.71201 10.46796,15.89215 15.39076,15.89215 0.56411,0 2.16447,-1.72087 3.55636,-3.82415 3.51305,-5.30858 7.86008,-8.25139 13.33649,-9.0284 4.38342,-0.62193 4.6801,-0.85792 4.9787,-3.96015 0.36536,-3.7959 4.81703,-7.17731 9.45723,-7.18356 1.97016,-0.003 3.02734,-0.66809 3.64583,-2.29484 0.47909,-1.2601 1.59295,-2.8902 2.47524,-3.62244 0.8823,-0.73224 1.60418,-2.41537 1.60418,-3.74029 0,-3.13797 1.92034,-3.7896 5.56575,-1.88862 4.03696,2.10514 4.43425,1.97455 4.43425,-1.45757 0,-3.18741 0.85472,-3.74528 2.78333,-1.81667 1.96863,1.96863 2.67204,-0.0227 0.75592,-2.13995 -2.41926,-2.67327 -1.30533,-5.04338 2.37035,-5.04338 3.29971,0 4.90908,-1.47187 2.58466,-2.36383 -0.82184,-0.31537 -1.49426,-1.26252 -1.49426,-2.10479 0,-1.47529 1.10672,-1.94927 3.75,-1.60603 0.6875,0.0893 1.25,-0.7023 1.25,-1.75907 0,-1.05676 0.701,-2.50317 1.55778,-3.21423 0.85677,-0.71106 2.18501,-2.79402 2.95163,-4.6288 1.4401,-3.44665 5.60912,-5.87548 8.30765,-4.83995 0.80969,0.3107 2.31089,-0.19411 3.336,-1.12182 1.73159,-1.56707 1.75044,-1.8598 0.2657,-4.12579 -1.51643,-2.31437 -1.46574,-2.57723 0.99155,-5.14209 1.83942,-1.91994 2.58968,-3.7827 2.58968,-6.4297 0,-2.63657 0.5119,-3.91554 1.75,-4.37234 2.68541,-0.9908 3.08949,-2.2046 1.95955,-5.88629 -0.85446,-2.78408 -0.73423,-3.72052 0.67808,-5.2811 1.63439,-1.80598 1.59433,-1.9932 -0.83546,-3.90448 -1.48248,-1.16611 -2.55217,-3.02374 -2.55217,-4.43211 0,-1.33352 -0.65539,-4.64375 -1.45642,-7.35608 -0.80102,-2.71232 -1.64059,-6.63357 -1.86571,-8.71388 -0.22511,-2.08031 -0.65887,-4.03196 -0.96391,-4.337 -0.99482,-0.99481 -16.11683,-2.55028 -19.96748,-2.05387 -2.06444,0.26613 -5.31749,0.004 -7.22901,-0.58277 -2.80656,-0.86136 -4.21561,-0.73291 -7.32094,0.6674 -2.65545,1.19744 -5.83386,1.65111 -10.27098,1.46601 -3.62504,-0.15122 -7.37753,0.25293 -8.6098,0.92728 -1.20134,0.65743 -4.71842,1.19533 -7.81574,1.19533 -6.54459,0 -9.70536,1.30127 -8.81249,3.62804 0.62735,1.63487 1.30352,1.62109 14.5813,-0.2972 3.53062,-0.51009 6.73119,0.76085 6.73119,2.67292 0,1.59132 -7.50927,6.39386 -10.84536,6.93612 -4.57675,0.74393 -5.06561,2.63386 -1.24393,4.80901 2.75604,1.56863 3.0773,2.24609 3.08297,6.50111 0.007,5.16602 -1.97157,6.52835 -3.99368,2.75 -1.38538,-2.5886 -2.29399,-2.52619 -3.51287,0.24127 -0.65358,1.48395 -2.16978,2.43951 -4.48713,2.82796 -1.925,0.32267 -4.98978,1.50829 -6.81062,2.6347 -5.28923,3.27202 -16.26847,13.35908 -15.64272,14.37156 0.76953,1.24513 4.45334,1.18268 4.45334,-0.0755 0,-0.55 0.675,-1 1.5,-1 0.825,0 1.5,0.3421 1.5,0.76022 0,1.38868 -5.05752,6.23978 -6.50529,6.23978 -0.78339,0 -1.92715,0.9395 -2.54169,2.08779 -0.83921,1.56807 -1.72207,1.93601 -3.54663,1.47807 -1.94064,-0.48707 -2.66262,-0.0976 -3.58928,1.93619 -0.64683,1.41963 -2.30071,2.80085 -3.73855,3.12221 -1.41821,0.31697 -4.37856,1.02881 -6.57856,1.58188 -2.2,0.55307 -4.10474,0.97641 -4.23275,0.94074 -0.12802,-0.0357 -1.63362,0.52418 -3.34578,1.24409 -2.73302,1.14915 -3.98633,1.03137 -10.26725,-0.96489 -3.93482,-1.2506 -9.00597,-2.75794 -11.26922,-3.34964 -7.57586,-1.98064 -19.35173,-14.13026 -24.369404,-25.14286 -0.91223,-2.00212 -4.20496,-4.71235 -8.14158,-6.7013 -0.34429,-0.17395 -0.50117,1.79123 -0.34862,4.36706 0.24738,4.17708 -0.0799,5.01935 -3.02756,7.79199 -5.04122,4.74188 -9.22187,12.9838 -16.03,31.60225 -0.8848,2.4197 -0.97088,4.06649 -0.28002,5.35736 0.67516,1.26156 0.655,2.20624 -0.0624,2.92364 -0.74648,0.74647 -1.27298,0.49297 -1.78062,-0.85736 -0.39642,-1.05447 -2.22557,-4.07059 -4.06479,-6.7025 -5.47394,-7.83317 -13.28001,-23.17897 -13.28001,-26.10692 0,-1.49921 -0.42465,-2.46339 -0.94367,-2.14262 -1.49817,0.92592 -6.05777,-7.7922 -6.04227,-11.55304 0.016,-3.89059 6.78499,-17.08233 10.2625,-20.00017 3.00474,-2.52116 11.21082,-5.57342 17.26273,-6.4209 2.72839,-0.38206 6.76071,-1.86347 8.96071,-3.29202 2.2,-1.42854 4.68199,-2.62023 5.51553,-2.6482 2.15508,-0.0723 5.78884,-3.2103 10.97719,-9.47954 2.471,-2.98578 7.118714,-7.12594 10.328254,-9.20037 5.66245,-3.65981 19.52382,-8.87094 23.59632,-8.87094 1.10477,0 4.16283,-0.82878 6.79569,-1.84173 7.04412,-2.71011 21.53854,-4.62921 24.20104,-3.20429 1.97707,1.0581 8.19764,0.59122 10.57803,-0.79393 0.54562,-0.3175 3.98555,-0.59589 7.64428,-0.61866 5.05194,-0.0314 7.14917,-0.49096 8.71796,-1.91018 2.1992,-1.98955 5.98022,-1.7976 12.97481,0.65869 2.94371,1.03375 3.26402,1.49451 2.76688,3.98019 -0.6206,3.10301 0.539,5.58759 4.59922,9.8544 1.48235,1.55779 3.8891,4.86958 5.34831,7.35955 2.74896,4.69074 6.00539,6.42742 8.95589,4.77623 1.39982,-0.78338 0.51858,-2.34551 -5.92756,-10.50744 -9.67455,-12.24966 -9.93659,-15.63205 -0.83302,-10.75283 2.05236,1.1 5.45531,2 7.56211,2 2.10681,0 4.68886,0.45935 5.7379,1.02078 2.73094,1.46156 11.33196,2.97868 19.46117,3.43272 6.6001,0.36864 6.82315,0.31316 3.90442,-0.97112 -1.70258,-0.74916 -3.9162,-2.62666 -4.91917,-4.17224 -3.79611,-5.84983 -12.23108,-13.15476 -16.64577,-14.41571 -2.38671,-0.68171 -5.03682,-1.82499 -5.88913,-2.54062 -0.8523,-0.71563 -3.3273,-1.93109 -5.5,-2.70101 -6.68936,-2.37048 -10.93187,-5.18735 -11.2699,-7.48281 -0.26612,-1.80716 0.17215,-2.16999 2.62117,-2.16999 2.79165,0 2.97595,-0.26558 3.6357,-5.23899 0.38223,-2.88145 1.53751,-6.60225 2.56728,-8.26846 1.02977,-1.6662 2.0899,-4.22939 2.35584,-5.69598 0.55029,-3.03463 4.25563,-8.43527 6.3348,-9.23312 1.1256,-0.43193 1.16081,-0.96591 0.18454,-2.79861 -2.58391,-4.85064 -7.5847,-5.61237 -9.43521,-1.4372 -0.82748,1.86699 -1.66439,2.1374 -5.9537,1.92363 -4.3549,-0.21703 -5.35366,-0.69488 -7.83786,-3.75 -1.56585,-1.9257 -3.42494,-3.50127 -4.13132,-3.50127 -0.70637,0 -2.52204,-1.62275 -4.03482,-3.60611 -1.51278,-1.98335 -4.37869,-4.28767 -6.36869,-5.1207 -4.07035,-1.70389 -16.2732,-1.92515 -20.36547,-0.36927 -1.42538,0.54193 -5.21536,0.95512 -8.42216,0.91819 -6.92381,-0.0797 -13.15304,1.46382 -16.4852,4.0849 -1.32866,1.04512 -4.25366,2.39512 -6.5,3 -4.55495,1.22652 -9.34535,4.56382 -9.34535,6.51058 0,0.69984 0.9,2.08692 2,3.08241 1.1,0.99549 2,2.09349 2,2.44001 0,0.34652 -2.66475,3.31428 -5.92167,6.59501 -10.81747,10.89658 -15.07833,13.02509 -15.07833,7.53237 0,-2.05436 0.59896,-3.12272 2,-3.56739 2.77931,-0.88212 2.50582,-2.5 -0.42261,-2.5 -1.92177,0 -3.51367,1.65385 -7.70033,8 -2.902764,4.4 -5.826834,8 -6.497944,8 -0.67112,0 -1.48429,-1.2375 -1.80704,-2.75 -0.65984,-3.09212 -0.14957,-12.50659 0.75741,-13.97411 0.32559,-0.52681 -0.69648,-1.91043 -2.27125,-3.07471 -1.57477,-1.16428 -4.25996,-4.55811 -5.96708,-7.54185 -1.70713,-2.98374 -3.776,-5.98281 -4.59751,-6.6646 -2.08731,-1.73231 -1.86075,-3.74344 0.50635,-4.49473 2.01045,-0.63809 2.86865,-4.5 1,-4.5 -1.92859,0 -1.03226,-4.1788 1.01094,-4.71311 1.13875,-0.29779 2.25928,-1.66679 2.58352,-3.15638 1.04076,-4.78134 1.37087,-5.27613 3.15061,-4.72229 2.81987,0.87753 4.611,-0.85336 3.88332,-3.7527 -0.52958,-2.10999 -0.0268,-3.05027 2.86462,-5.35734 1.92881,-1.539 3.506944,-3.16754 3.506964,-3.61899 5e-5,-1.45887 8.9835,-13.45887 10.51577,-14.04686 0.82674,-0.31725 1.48426,-1.81863 1.48426,-3.38918 0,-2.11184 1.11359,-3.750465 4.43627,-6.527885 l 4.43627,-3.70826 18.06373,0.65431 c 9.93505,0.35987 18.06373,1.03329 18.06373,1.4965 0,1.41072 4.04598,0.93907 5.64286,-0.65781 3.3505,-3.35051 25.25083,-0.88087 27.63433,3.11624 1.37656,2.308495 7.43102,2.804975 10.40923,0.85357 2.40205,-1.57388 4.53686,-1.6887 20.74558,-1.11578 15.20142,0.53732 18.37597,0.40124 20.00913,-0.85769 1.32201,-1.01909 4.19254,-1.47854 9,-1.44053 l 7.05886,0.0558 4.317,5.468535 c 2.37435,3.00769 5.16351,7.3822 6.19813,9.72114 1.03463,2.33893 2.91698,5.22101 4.183,6.40462 1.26603,1.1836 10.12738,5.52107 19.6919,9.63882 16.4979,7.10272 17.74549,7.83741 24.31887,14.32103 6.97298,6.87777 15.11187,17.77583 26.38828,35.33422 4.32784,6.73885 7.85723,14.15036 12.14319,25.5 5.75377,15.23657 6.14033,16.835 8.10155,33.5 2.62529,22.3079 3.25971,30.30717 3.30556,41.67973 l 0.037,9.17973 2.76469,-3.17973 c 1.52058,-1.74885 3.28264,-4.77232 3.91569,-6.71882 0.69942,-2.15056 2.3604,-4.25348 4.23351,-5.35996 6.48567,-3.83118 10.20398,-8.12578 13.91281,-16.06916 2.06257,-4.41748 4.04947,-9.15679 4.41534,-10.53179 0.60642,-2.27902 0.39043,-2.19063 -2.44348,1 -1.70979,1.925 -5.16071,6.56867 -7.66872,10.31926 -6.39904,9.56947 -9.19689,12.68077 -11.40321,12.68077 -2.69238,0 -2.38436,-2.73156 0.85777,-7.60689 1.50212,-2.25879 4.03428,-6.08379 5.62704,-8.5 3.28967,-4.99043 10.1858,-13.58692 12.86108,-16.0322 0.98629,-0.9015 3.1058,-2.18276 4.71003,-2.84725 1.96825,-0.81528 3.12732,-2.16673 3.56418,-4.15575 0.35607,-1.62117 1.73221,-4.11812 3.05809,-5.54877 1.32589,-1.43065 2.4107,-3.1489 2.4107,-3.81832 0,-1.36253 9.40919,-10.49082 10.81365,-10.49082 0.80446,0 10.10886,-7.56765 23.39132,-19.02511 2.66136,-2.29569 6.03531,-4.22687 7.76778,-4.44613 2.97683,-0.37674 8.0579,-3.01801 12.90765,-6.70974 2.11172,-1.60747 7.00672,-3.25587 20.61961,-6.94368 2.2,-0.59599 5.125,-1.55572 6.5,-2.13274 2.51837,-1.05683 18.0782,-2.86175 25.5,-2.95798 4.66763,-0.0605 21.15294,1.63496 30.5,3.13686 10.7256,1.72339 32.67244,11.61935 42,18.93803 3.575,2.80506 8.6375,6.7264 11.25,8.7141 2.6125,1.9877 4.75,3.99506 4.75,4.4608 0,0.46574 3.05342,4.13992 6.78538,8.16484 9.98323,10.76692 15.03868,17.86948 17.30135,24.30719 1.10704,3.14973 4.23459,10.06181 6.95012,15.36017 2.71552,5.29836 7.59603,15.93339 10.84557,23.63339 l 5.90826,14 0.58972,25.5 c 1.33979,57.93316 0.47293,73.10286 -4.54173,79.47797 -1.84605,2.34687 -3.94273,9.33768 -5.29428,17.65237 -0.95472,5.87331 -7.59186,15.09613 -14.02045,19.48248 -10.21232,6.96807 -9.88782,6.54516 -10.75967,14.02265 -0.44021,3.77549 -1.16525,13.61453 -1.61119,21.86453 -0.87596,16.20548 -1.66084,19.04002 -7.37092,26.61961 -3.8472,5.10681 -6.0383,9.65693 -5.25814,10.91926 1.40236,2.26907 -9.91158,33.06706 -15.96587,43.46113 -1.28145,2.2 -3.03912,6.78193 -3.90593,10.18206 -2.36228,9.26618 -7.66292,21.1812 -10.37031,23.31083 -1.31729,1.03618 -4.73211,2.64332 -7.58849,3.57143 -2.85638,0.92811 -7.66842,2.83621 -10.69342,4.24022 -7.43346,3.45014 -17.24057,3.86051 -25.5,1.06701 z m 22.18449,-16.51177 5.18449,-0.62284 0.68201,-6.36847 c 0.6295,-5.87824 0.8679,-6.36847 3.09689,-6.36847 2.95199,0 3.76341,1.78803 2.41768,5.32755 -0.79297,2.08569 -0.71707,2.67245 0.34569,2.67245 1.32036,0 2.11473,-2.49846 3.24677,-10.2117 0.61529,-4.19233 1.74077,-5.44434 5.34198,-5.94248 2.15222,-0.29771 2.54229,-0.92708 2.804,-4.52419 0.28524,-3.92064 0.13104,-4.1982 -2.5,-4.5 -2.40428,-0.27578 -2.77483,-0.73068 -2.59937,-3.19114 0.11254,-1.57823 1.1121,-4.70368 2.22123,-6.94544 1.10913,-2.24175 1.77318,-4.31934 1.47566,-4.61687 -0.29752,-0.29752 -3.09708,-0.56611 -6.22123,-0.59688 -5.91396,-0.0582 -8.31463,-0.9733 -14.18029,-5.40513 -4.68891,-3.54274 -14.32089,-8.06528 -17.18705,-8.06991 -2.14395,-0.003 -4.94641,-1.48747 -10.55066,-5.587 -2.09588,-1.53313 -2.27982,-1.51875 -2.902,0.22693 -0.95193,2.67086 -3.45223,5.36381 -4.98009,5.36381 -0.72041,0 -1.74654,-0.816 -2.2803,-1.81333 -1.34076,-2.50523 0.75481,-6.41624 3.9081,-7.29379 2.48083,-0.69041 2.47938,-0.69397 -0.32136,-0.7932 -2.55529,-0.0905 -2.78461,-0.3978 -2.5,-3.34968 0.23901,-2.47888 0.7879,-3.25 2.31336,-3.25 1.31273,0 2.10981,-0.77318 2.31955,-2.25 0.24837,-1.74877 0.97237,-2.25 3.25,-2.25 3.08185,0 3.2587,0.30153 2.0256,3.45377 -1.24528,3.18337 3.28433,6.14858 10.40485,6.81132 8.86581,0.82518 13.93321,2.76647 14.31955,5.48573 0.30759,2.165 3.18045,3.29337 3.18045,1.24918 0,-0.55 1.125,-1 2.5,-1 1.375,0 2.50437,0.3375 2.50971,0.75 0.005,0.4125 4.03309,0.87448 8.95057,1.02662 7.72696,0.23905 9.065,0.0354 9.85516,-1.5 0.50287,-0.97714 0.70757,-2.35425 0.45489,-3.06024 -0.25268,-0.70599 0.0568,-1.90565 0.68778,-2.6659 0.90317,-1.08826 0.70469,-1.52273 -0.9331,-2.04254 -1.5418,-0.48935 -2.82414,0.13602 -4.95386,2.4159 -1.7511,1.87455 -3.86656,3.07616 -5.41566,3.07616 -2.72706,0 -5.65549,-3.22203 -5.65549,-6.22251 0,-1.92549 -1.50183,-2.39256 -2.5,-0.77749 -0.96585,1.56278 -3.49605,1.17388 -4.19386,-0.64461 -0.35729,-0.93107 0.009,-2.12419 0.84335,-2.75 0.81095,-0.60796 1.76994,-1.89289 2.1311,-2.85539 0.91864,-2.44825 5.71941,-2.37314 5.71941,0.0895 0,3.39352 9.42936,5.81117 10.61492,2.72163 0.86321,-2.24949 5.44168,-2.74937 10.69659,-1.16787 4.45988,1.34222 5.13361,1.29856 9.49451,-0.61526 5.60674,-2.46058 8.20315,-4.94723 10.62256,-10.17351 2.06065,-4.45128 1.75456,-8.79764 -1.25899,-17.87731 -1.28091,-3.85933 -1.97336,-8.99708 -2.08904,-15.5 -0.0952,-5.34994 -0.81023,-12.20216 -1.58902,-15.22716 -3.92235,-15.23522 -2.48773,-22.59152 5.71691,-29.3146 4.79009,-3.92512 12.14865,-7.62851 15.22711,-7.66344 1.06455,-0.0121 2.97705,-1.0004 4.25,-2.19627 3.72636,-3.50075 2.7436,-10.82571 -1.45243,-10.82571 -0.75178,0 -5.61903,-2.05455 -10.81611,-4.56567 -5.19707,-2.51112 -14.27948,-6.30173 -20.18312,-8.42359 -5.90364,-2.12186 -13.9895,-5.21395 -17.96857,-6.8713 -12.34408,-5.14153 -37.39675,-6.32191 -68.76532,-3.23994 -8.27264,0.81279 -12.81187,2.03455 -21.06825,5.6706 -1.68753,0.74318 -7.31253,2.51263 -12.5,3.93211 -5.18746,1.41947 -13.81925,3.98864 -19.18176,5.70927 l -9.75,3.1284 -0.019,5.58006 c -0.0104,3.06903 -1.08245,10.67701 -2.3823,16.90661 -1.6583,7.9475 -2.02556,11.42426 -1.23105,11.65406 3.9361,1.13852 4.76293,1.73278 5.64731,4.05886 2.40312,6.32068 0.14437,14.46053 -4.0127,14.46053 -2.57237,0 -3.23143,-1.40303 -1.96485,-4.18288 0.81212,-1.78239 0.67414,-3.26312 -0.58485,-6.2763 -1.49975,-3.58941 -1.74506,-3.76963 -2.73158,-2.0068 -0.59613,1.06521 -1.26109,5.46339 -1.4777,9.77373 l -0.39384,7.83698 2.61622,-1.71422 c 2.10473,-1.37907 3.09697,-1.49517 5.07525,-0.5938 3.33772,1.52077 3.10782,4.56513 -0.54096,7.16329 -2.85284,2.0314 -4.32276,7 -2.0709,7 0.51101,0 1.44689,2.5875 2.07974,5.75 1.69947,8.49259 3.19702,13.25 4.17089,13.25 0.47473,0 1.3595,1.08939 1.96616,2.42086 0.60666,1.33147 1.64992,2.21099 2.31835,1.95449 0.66843,-0.2565 1.79253,0.22911 2.49799,1.07914 0.70546,0.85003 1.89219,1.54551 2.63716,1.54551 1.76762,0 4.76712,4.59798 3.90719,5.98937 -0.3662,0.59253 -2.29766,0.94982 -4.29215,0.79398 l -3.62631,-0.28335 -1.1488,6.5 c -0.63184,3.575 -1.47793,7.85 -1.88019,9.5 -0.65028,2.66727 -0.43454,2.52235 1.94517,-1.30661 2.35029,-3.78162 3.06074,-4.26924 5.82795,-4 2.118,0.20607 3.26582,0.91024 3.50038,2.14742 0.47764,2.51931 4.4232,6.39174 4.93821,4.84669 0.57587,-1.72746 4.22922,-1.45751 4.22922,0.3125 0,0.825 -0.45,1.5 -1,1.5 -0.55,0 -1,1.48464 -1,3.2992 0,3.1303 0.16638,3.28053 3.25,2.93457 1.83835,-0.20626 4.11063,0.2744 5.23142,1.1066 1.92881,1.43217 1.93531,1.59985 0.24505,6.31543 -2.00124,5.58317 -2.09067,6.3442 -0.74552,6.3442 0.53952,0 1.2633,-1.125 1.60841,-2.5 0.3451,-1.375 1.20553,-2.5 1.91206,-2.5 0.70653,0 1.50652,-0.5783 1.77774,-1.2851 0.27123,-0.70681 2.30744,-2.54241 4.5249,-4.07912 3.34388,-2.3173 4.38701,-2.60389 6.11385,-1.67971 2.7275,1.45971 2.65037,4.39714 -0.16791,6.39496 -2.11656,1.50038 -2.14622,1.67725 -0.5,2.98222 2.34083,1.85559 2.20757,4.81533 -0.364,8.08455 -2.66807,3.3919 -1.7896,4.38919 1.83279,2.08071 3.57976,-2.28131 7.19923,-6.56053 7.24525,-8.56589 0.0388,-1.69078 8.75177,-4.93262 13.25722,-4.93262 5.1,0 4.2366,7.67763 -1.1783,10.47778 -3.38186,1.74883 -3.5561,2.3019 -1.88244,5.97517 1.23319,2.70656 4.83948,3.53078 4.83948,1.10607 0,-2.10996 1.8687,-2.91288 3.5438,-1.52267 2.458,2.03996 1.66961,5.29332 -1.9904,8.21365 -1.8956,1.5125 -4.14545,2.75 -4.99966,2.75 -1.31335,0 -1.47475,1.18483 -1.04546,7.67463 0.27921,4.22105 0.72316,7.89015 0.98656,8.15354 0.73027,0.73028 3.50516,-6.45286 3.50516,-9.07355 0,-3.06764 2.67256,-6.75462 4.89619,-6.75462 1.62923,0 4.10381,3.67547 4.10381,6.09536 0,0.55069 -0.9,2.86404 -2,5.14078 -1.1,2.27673 -2,5.16875 -2,6.42669 0,1.98655 0.37837,2.2115 2.87872,1.71143 1.63691,-0.32739 3.17218,-0.10091 3.55902,0.525 1.11875,1.81018 2.30633,1.25659 2.96908,-1.38403 0.59519,-2.37141 4.89842,-4.54332 6.27477,-3.16698 1.30506,1.30506 0.85319,5.33564 -0.94193,8.40175 -1.85845,3.17429 -1.85895,3.25 -0.0212,3.25 1.03486,0 2.30906,0.4119 2.83156,0.91532 1.83299,1.76609 7.75362,2.33116 15.13449,1.44446 z m -10.49199,-5.60978 c 0.24996,-3.45472 0.70582,-4.30682 2.43614,-4.55365 1.73524,-0.24753 2.25245,0.35627 2.79851,3.26701 0.82166,4.37982 0.18571,5.53664 -3.04366,5.53664 -2.32096,0 -2.47664,-0.30197 -2.19099,-4.25 z m 18.8075,-32.75 c 0,-1.46667 0.66667,-2 2.5,-2 1.83333,0 2.5,0.53333 2.5,2 0,1.46667 -0.66667,2 -2.5,2 -1.83333,0 -2.5,-0.53333 -2.5,-2 z m -5,-4.37756 c 0,-0.75765 0.69758,-1.95649 1.55019,-2.66409 1.27704,-1.05985 1.8265,-1.01023 3.11832,0.28159 0.86248,0.86248 1.26334,2.06132 0.8908,2.6641 -0.98546,1.59451 -5.55931,1.36283 -5.55931,-0.2816 z m -82.33333,-27.28911 c -0.98424,-0.98423 -0.81014,-6.12663 0.22917,-6.76895 0.49271,-0.30451 1.9513,0.301 3.24131,1.34559 2.31138,1.87165 2.31791,1.92971 0.44917,3.99464 -2.00295,2.21324 -2.83269,2.51568 -3.91965,1.42872 z m 13.30875,-0.86294 c -1.75733,-2.11746 0.26302,-6.47039 3.00314,-6.47039 1.54729,0 2.02144,0.65677 2.02144,2.8 0,2.61591 -1.52936,5.2 -3.07756,5.2 -0.37265,0 -1.24881,-0.68833 -1.94702,-1.52961 z m 42.17619,-9.35553 c -2.02414,-1.28275 -0.94985,-4.5694 1.61308,-4.935 2.68733,-0.38334 4.00654,2.18594 2.22474,4.33287 -1.41425,1.70408 -1.96311,1.79019 -3.83782,0.60213 z m -52.15161,-3.11486 c 0,-1.33333 0.66667,-2 2,-2 1.33333,0 2,0.66667 2,2 0,1.33333 -0.66667,2 -2,2 -1.33333,0 -2,-0.66667 -2,-2 z m 94.75,-7.19369 c -2.8837,-1.69133 -3.75,-2.83149 -3.75,-4.93548 0,-4.21471 2.86935,-4.41689 9.40548,-0.66272 4.30817,2.47448 5.60301,3.74323 5.38352,5.27501 -0.42406,2.95944 -6.25323,3.1301 -11.039,0.32319 z m -14.21381,-4.76632 c -1.33401,-1.47406 -1.60913,-2.83767 -1.10967,-5.5 0.58054,-3.09457 1.03193,-3.53999 3.58741,-3.53999 2.11624,0 2.77267,0.39254 2.37768,1.42186 -0.30009,0.78202 -0.036,2.37402 0.58679,3.53777 2.57791,4.81687 -1.80307,8.10157 -5.44221,4.08036 z m -93.91708,-3.42146 c -0.86368,-3.44116 1.18559,-8.61853 3.41133,-8.61853 2.30459,0 3.35122,3.15204 2.51923,7.58694 -0.5126,2.73237 -1.10823,3.41306 -2.98658,3.41306 -1.63756,0 -2.52682,-0.71934 -2.94398,-2.38147 z m -9.22378,-6.21386 c -0.60756,-0.26095 -0.88794,-1.60812 -0.62307,-2.99373 0.38927,-2.03632 0.98446,-2.46098 3.10466,-2.21511 2.05017,0.23773 2.62308,0.8502 2.62308,2.80417 0,2.46504 -2.36745,3.58027 -5.10467,2.40467 z m -0.39534,-12.43605 c 0,-2.48576 2.51234,-3.61823 4.4533,-2.00738 2.00549,1.66441 0.79427,4.03876 -2.06029,4.03876 -1.73867,0 -2.39301,-0.55546 -2.39301,-2.03138 z m -1.52396,-23.0074 c -1.03186,-1.66958 1.84425,-4.15928 3.89551,-3.37214 0.94965,0.36442 1.58746,1.39345 1.41734,2.28675 -0.36771,1.93079 -4.29456,2.73303 -5.31285,1.08539 z m 90.77397,-6.93234 c -1.2375,-0.53044 -2.25,-1.42893 -2.25,-1.99666 0,-0.56772 -1.15458,-1.03222 -2.56574,-1.03222 -3.35346,0 -6.43426,-1.69269 -6.43426,-3.53518 0,-0.80565 -0.939,-2.40382 -2.08666,-3.55148 -1.46914,-1.46914 -1.90591,-2.80682 -1.47588,-4.52017 0.52714,-2.10032 0.1967,-2.51634 -2.41334,-3.03835 -1.66327,-0.33265 -3.02412,-0.99857 -3.02412,-1.47982 0,-0.48125 -1.32071,-0.875 -2.9349,-0.875 -6.82675,0 -10.39071,-3.82503 -6.54092,-7.02007 1.92611,-1.59853 16.41869,-0.6904 17.52404,1.09809 0.41113,0.66522 0.28757,2.5289 -0.27459,4.1415 -0.58038,1.66487 -0.64428,3.27191 -0.14787,3.71851 1.44235,1.2976 14.0067,4.06756 18.07976,3.98589 l 3.79448,-0.0761 -3.5,-1.42632 c -1.925,-0.78448 -4.2875,-1.70273 -5.25,-2.04056 -0.9625,-0.33782 -1.75,-1.51799 -1.75,-2.62259 0,-1.77024 0.38535,-1.9095 3.25,-1.17449 6.20922,1.59316 13.11217,0.94756 16.47829,-1.54112 3.63362,-2.68645 5.87883,-2.20631 7.31218,1.5637 1.45283,3.82121 0.32574,6.20536 -3.86676,8.17946 -3.08647,1.45331 -3.67371,2.23267 -3.67371,4.87559 0,4.75971 -4.4523,8.40567 -10.89571,8.92244 -2.80736,0.22515 -6.11679,-0.0246 -7.35429,-0.55507 z m -94.25001,-13.52888 c 0,-0.83333 0.88889,-1.5 2,-1.5 1.11111,0 2,0.66667 2,1.5 0,0.83333 -0.88889,1.5 -2,1.5 -1.11111,0 -2,-0.66667 -2,-1.5 z m 128.00001,-9.19374 c -6.6337,-2.12509 -12.51596,-4.77999 -21,-9.47814 -2.475,-1.37056 -6.00037,-2.7889 -7.83416,-3.15186 -4.02358,-0.79638 -9.16584,-4.27988 -9.16584,-6.20917 0,-0.7682 0.91287,-1.88528 2.0286,-2.4824 3.50793,-1.87738 21.26346,3.57316 36.91146,11.33098 6.65121,3.29748 8.50865,4.68898 8.76371,6.56534 0.38346,2.8209 -1.29863,5.16935 -3.57621,4.9929 -0.89516,-0.0693 -3.65256,-0.77479 -6.12756,-1.56765 z m -84.33583,140.12652 c 0.33077,-0.86197 0.1601,-2.00851 -0.37926,-2.54787 -1.40556,-1.40556 -6.27507,0.97716 -5.59878,2.73955 0.72334,1.88499 5.23667,1.74028 5.97804,-0.19168 z m 15.32803,-3.54411 c 0.004,-0.33623 -1.1172,-0.39627 -2.4922,-0.13342 -1.375,0.26285 -2.5,1.05811 -2.5,1.76724 0,1.01676 0.52687,1.04497 2.4922,0.13342 1.37071,-0.63575 2.49571,-1.43101 2.5,-1.76724 z m 78.0078,-12.34942 c 0,-1.23154 1.35,-4.10279 3,-6.38055 3.33338,-4.6016 3.51023,-5.36882 1.85029,-8.02682 -1.10761,-1.77357 -1.26922,-1.76392 -4.41297,0.26357 -3.20583,2.06752 -3.26038,2.22773 -3.10028,9.10455 0.0896,3.85 -0.19833,8.125 -0.6399,9.5 l -0.80285,2.5 2.05285,-2.36078 c 1.12907,-1.29844 2.05286,-3.36842 2.05286,-4.59997 z m -104.03063,1.96075 c 0,-0.55 -0.43621,-0.325 -0.96937,0.5 -0.53316,0.825 -0.96937,1.95 -0.96937,2.5 0,0.55 0.43621,0.325 0.96937,-0.5 0.53316,-0.825 0.96937,-1.95 0.96937,-2.5 z m 5.03063,-5.5 c 0,-0.55 -0.45,-1 -1,-1 -0.55,0 -1,0.45 -1,1 0,0.55 0.45,1 1,1 0.55,0 1,-0.45 1,-1 z m 78,-5.82681 c 0,-0.45474 -1.35,-0.62867 -3,-0.3865 -1.65,0.24217 -3,0.61423 -3,0.82681 0,0.21257 1.35,0.3865 3,0.3865 1.65,0 3,-0.37206 3,-0.82681 z m 31,-17.17319 c 0,-0.55 -0.675,-1 -1.5,-1 -0.825,0 -1.5,0.45 -1.5,1 0,0.55 0.675,1 1.5,1 0.825,0 1.5,-0.45 1.5,-1 z m -151.61779,-11.75 c -0.86637,-10.52584 -1.50277,-14.29353 -2.32816,-13.78341 -0.44968,0.27792 -0.37869,2.56321 0.15775,5.07842 1.22596,5.74811 0.384,9.45499 -2.14753,9.45499 -1.04369,0 -2.12459,-0.5625 -2.402,-1.25 -0.32689,-0.81012 -0.53217,-0.68871 -0.58333,0.34501 -0.094,1.8996 2.63058,4.50594 5.42105,5.18575 1.1,0.26798 2.07999,0.53944 2.17775,0.60324 0.0978,0.0638 -0.0352,-2.4715 -0.29553,-5.634 z m -8.10606,-20.3931 c -0.29942,-6.72407 -1.27616,-7.63505 -1.27616,-1.19023 0,4.01164 0.52028,6.33333 1.41926,6.33333 0.0473,0 -0.0171,-2.31439 -0.1431,-5.1431 z m -18.92039,-15.37215 c -0.85883,-2.23808 -2.06505,-1.78589 -2.59221,0.97177 -0.40479,2.11752 -0.21902,2.32242 1.34619,1.48475 1.0418,-0.55756 1.57292,-1.60465 1.24602,-2.45652 z M 596.9038,418.75318 c 2.20306,-2.20306 3.4,-4.35931 3.4,-6.125 0,-2.54087 -0.21961,-2.68113 -3.25,-2.07578 -3.68775,0.73667 -9.02608,5.54069 -7,6.29937 0.6875,0.25744 1.25,1.55558 1.25,2.88474 0,3.31023 1.58471,3.03196 5.6,-0.98333 z M 91.00311,399.1859 c 2.32247,-2.46061 4.08133,-3.16222 10.30069,-4.10895 4.125,-0.62791 9.95984,-1.09889 12.96631,-1.04662 4.36739,0.0759 6.22695,-0.43208 9.25,-2.52705 7.01113,-4.85872 3.44783,-9.41188 -5.21631,-6.66534 -2.475,0.78458 -6.1875,1.68572 -8.25,2.00254 -3.13624,0.48176 -3.75,0.28674 -3.75,-1.19155 0,-1.51983 -0.63123,-1.68108 -4.5032,-1.15037 -5.35009,0.73332 -12.06947,3.96298 -13.33174,6.40789 -2.02658,3.92532 -2.4541,11.24673 -0.65673,11.24673 0.21466,0 1.65061,-1.33527 3.19098,-2.96728 z m 7.73559,-20.00797 c 3.81835,-1.45173 3.10283,-3.02475 -1.37588,-3.02475 -3.96394,0 -5.70504,1.14571 -4.55902,3 0.77985,1.26182 2.66054,1.26966 5.9349,0.0247 z m 329.34988,-7.09957 c 1.69578,-0.59116 3.79563,-2.16207 4.66633,-3.49092 1.06773,-1.62957 2.91459,-2.62901 5.67331,-3.07015 3.9077,-0.62486 4.06908,-0.7926 3.6167,-3.75908 -0.61721,-4.04724 0.007,-5.60503 2.24439,-5.60503 1.10262,0 2.21194,1.12764 2.81711,2.86364 0.891,2.55591 1.46566,2.86519 5.34782,2.87808 4.39514,0.0146 7.87456,-1.32594 13.34956,-5.14327 1.65,-1.15043 3.14846,-2.16667 3.3299,-2.25831 0.18145,-0.0916 -0.39126,-1.26725 -1.27268,-2.61247 -1.89057,-2.88537 -1.12151,-5.72767 1.54977,-5.72767 2.24093,0 2.41071,-1.99067 0.54151,-6.34887 -3.37578,-7.87087 -4.7717,-20.12793 -2.54581,-22.35382 0.61312,-0.61312 1.19075,-5.23454 1.30104,-10.40925 0.19039,-8.9329 0.0646,-9.52902 -3.13198,-14.84731 -2.81189,-4.67821 -3.8878,-5.63579 -6.91137,-6.15126 l -3.58103,-0.61052 0.67267,5.11052 c 0.44692,3.39547 1.49072,5.96785 3.11032,7.66523 1.34071,1.40509 2.43766,3.51045 2.43766,4.67857 0,1.16812 0.70263,2.82648 1.56139,3.68525 1.73198,1.73198 1.81012,2.70013 0.83997,10.40736 -0.77599,6.16472 -3.11464,7.86721 -8.31612,6.05397 -2.72611,-0.95033 -3.30229,-0.72949 -6.53742,2.50564 -3.95137,3.95138 -4.52838,7.01934 -1.61356,8.57931 3.74554,2.00455 4.93314,1.27847 5.25824,-3.21482 0.26181,-3.61846 0.66402,-4.30039 2.70674,-4.58911 1.31958,-0.18651 3.45708,0.22703 4.75,0.91898 1.98615,1.06296 2.35569,2.04616 2.38256,6.33911 0.018,2.87274 0.66991,5.92466 1.5,7.02215 2.11794,2.80016 1.98987,12.42146 -0.17641,13.25273 -2.01911,0.77481 -4.64128,-2.46142 -3.99906,-4.93557 0.75497,-2.90852 -4.79329,-6.76351 -9.68306,-6.72788 -3.59551,0.0262 -3.89638,0.18355 -2.17327,1.13657 8.02838,4.44034 8.82716,11.83302 1.27856,11.83302 -2.05101,0 -3.13747,-0.69362 -3.97882,-2.54018 -0.99238,-2.17804 -1.59522,-2.44652 -4.22856,-1.88318 -1.68915,0.36134 -3.25385,0.82459 -3.4771,1.02942 -0.22326,0.20484 0.32507,2.23334 1.21851,4.50779 1.8482,4.70506 0.90796,7.88615 -2.33094,7.88615 -2.49394,0 -6.98166,-8.57755 -6.98166,-13.34431 0,-3.63689 -2.59349,-7.06719 -3.41609,-4.51831 -0.43494,1.34766 -1.46043,26.86262 -1.07966,26.86262 0.10852,0 1.58476,-0.48367 3.28054,-1.07482 z m 121.45823,-20.50152 c 0.31699,-0.31699 -0.10099,-1.77949 -0.92885,-3.25 -1.5496,-2.75257 -1.04207,-5.26558 1.89141,-9.36512 0.98423,-1.37546 0.86231,-2.07605 -0.6526,-3.75 -1.02462,-1.1322 -2.66491,-2.05854 -3.64509,-2.05854 -1.48369,0 -1.68547,0.59568 -1.20492,3.55699 0.49024,3.02101 0.26335,3.63906 -1.50575,4.10169 -3.32725,0.8701 -3.92443,5.92148 -1.03986,8.79592 2.22322,2.21542 5.83548,3.21924 7.08566,1.96906 z m -66.84927,-2.30625 c 0.93705,-1.03542 2.24429,-4.07292 2.90499,-6.75 0.9327,-3.77919 1.68918,-4.93687 3.38361,-5.17809 1.35982,-0.19359 2.57279,0.41888 3.21831,1.62503 0.98581,1.84201 0.8315,7.19199 -0.25829,8.95531 -0.28072,0.45421 -0.12438,1.45041 0.34741,2.21378 0.69023,1.11683 1.15121,1.14445 2.35983,0.14138 0.82611,-0.68561 2.09791,-1.16586 2.82621,-1.06721 2.83551,0.38406 3.82419,-0.13265 3.82419,-1.99859 0,-1.06754 -0.45,-2.2191 -1,-2.55902 -1.78201,-1.10135 -1.09273,-5.38 1.05158,-6.52761 3.87514,-2.07391 6.32906,-0.83046 7.94842,4.02761 2.36283,7.0885 5.84329,8.44977 10.06078,3.93494 3.03876,-3.25301 7.29836,-3.90252 8.73678,-1.3322 1.36575,2.44046 4.45851,1.27157 5.33811,-2.01751 0.42872,-1.60312 1.32039,-3.24906 1.98149,-3.65764 0.92833,-0.57374 0.89983,-1.50383 -0.12518,-4.08523 -1.82345,-4.59217 -2.9204,-5.84236 -5.12624,-5.84236 -1.64421,0 -1.80638,0.51904 -1.24975,4 0.52798,3.30181 0.35313,4 -1.00175,4 -2.06482,0 -5.33604,-1.81177 -8.79592,-4.87164 -2.2193,-1.96271 -3.16764,-2.21249 -5.5,-1.44861 -3.74014,1.22494 -10.96485,0.10229 -13.10325,-2.03611 -1.61633,-1.61632 -1.61429,-1.88292 0.0363,-4.75898 2.53029,-4.40878 2.19704,-6.27691 -1.35916,-7.61923 -3.02747,-1.14274 -3.09491,-1.10593 -2.61106,1.42517 0.38237,2.00027 -0.2887,3.38358 -2.916,6.01088 -1.87697,1.87697 -3.1876,3.77685 -2.91251,4.22195 0.80531,1.30302 -3.13501,4.28607 -5.12828,3.8824 -1.51641,-0.3071 -1.78018,-1.20818 -1.56243,-5.33765 0.36147,-6.85506 -0.58709,-8.0455 -4.59345,-5.76476 -3.09518,1.76203 -4.14706,4.57377 -2.16852,5.79658 1.90666,1.17838 1.01692,4.53517 -1.50688,5.68509 -2.18681,0.99638 -2.32959,1.34476 -1.11829,2.72856 3.18356,3.63691 2.61235,11.08635 -0.85008,11.08635 -2.20507,0 -1.87206,1.64333 0.69776,3.4433 2.98053,2.08764 6.09959,1.96325 8.17123,-0.32589 z m 30.27293,-7.78408 c -2.13971,-2.1397 1.1843,-7.33333 4.69346,-7.33333 2.1332,0 3.04479,2.25055 2.22866,5.50224 -0.48276,1.92349 -1.27394,2.49776 -3.44118,2.49776 -1.54785,0 -3.11428,-0.3 -3.48094,-0.66667 z m -21.1109,-9.24309 c -0.96464,-1.56082 0.616,-4.20364 2.32006,-3.87912 0.89329,0.17012 1.76797,1.31721 1.94372,2.5491 0.24011,1.68298 -0.18025,2.23978 -1.69098,2.23978 -1.1058,0 -2.26355,-0.40939 -2.5728,-0.90976 z m 69.61549,14.25477 c 2.46159,-2.22771 2.33025,-6.00624 -0.25691,-7.39085 -2.77883,-1.48718 -3.41435,-0.62561 -3.41435,4.62885 0,4.75242 0.80372,5.35709 3.67126,2.762 z m -121.82254,-2.53606 c 0.698,-1.10657 0.50018,-2.60759 -0.66813,-5.06962 -0.91284,-1.92368 -2.24948,-5.80205 -2.97028,-8.61859 -1.30197,-5.08743 -3.13024,-8.03415 -4.27467,-6.88972 -0.32873,0.32873 -0.11117,1.50676 0.48347,2.61786 0.72206,1.34918 0.76175,2.86029 0.11951,4.54952 -0.8404,2.2104 -0.61974,2.69658 1.74985,3.85545 2.50732,1.22622 2.68974,1.72571 2.42225,6.63254 -0.29426,5.39795 0.88422,6.49552 3.138,2.92256 z m 83.16496,-20.82406 c 1.00301,-1.10832 3.17964,-2.36649 4.83697,-2.79595 3.91644,-1.01485 4.32602,-2.51555 1.23868,-4.53845 -2.7119,-1.77691 -5.58933,-1.26834 -5.58933,0.98788 0,2.37229 -2.82856,2.69882 -7.59846,0.87718 -2.48768,-0.95006 -4.76661,-1.48381 -5.06429,-1.18613 -1.38373,1.38372 6.16148,8.39078 9.25776,8.59748 0.60226,0.0402 1.91566,-0.8337 2.91867,-1.94201 z m -98.51369,-2.38892 c 0,-0.7073 -0.9,-2.10048 -2,-3.09597 -2.03485,-1.84151 -2.48439,-4.07412 -1.39301,-6.91821 0.67373,-1.75573 3.92831,-2.1427 4.89301,-0.58179 0.98667,1.59647 7.5,1.23945 7.5,-0.41111 0,-0.7761 1.35,-2.54705 3,-3.93544 1.65,-1.38838 3.00001,-2.72915 3.00001,-2.97948 0,-1.33145 -7.66891,-1.25603 -9.22123,0.0907 -1.37239,1.19061 -2.52984,1.28799 -5.71113,0.48049 -3.68613,-0.93564 -4.11336,-0.82432 -5.61149,1.46211 -2.0418,3.11618 -1.51289,8.3321 1.42755,14.07807 2.02314,3.95345 4.11629,4.87417 4.11629,1.81065 z m 27.96453,-7.00266 c 0.67841,-1.78433 0.41341,-3.39058 -1.02475,-6.21144 -1.06687,-2.09262 -1.95572,-5.8471 -1.97521,-8.34331 -0.0429,-5.48984 -1.64811,-8.64294 -5.38793,-10.58318 -1.54289,-0.80046 -2.93142,-1.45538 -3.08563,-1.45538 -0.55853,0 1.22467,6.60021 2.35261,8.70778 1.57696,2.94659 1.4569,7.23967 -0.22047,7.88334 -1.1261,0.43212 -1.16362,1.25056 -0.20602,4.49373 1.04583,3.54203 3.08,5.43867 8.35763,7.79261 0.15111,0.0674 0.68651,-0.96047 1.18977,-2.28415 z m 32.49356,-8.70207 c -0.0231,-0.76518 -0.8201,-2.84986 -1.77121,-4.63261 -1.71109,-3.20722 -1.45325,-8.25863 0.42154,-8.25863 2.05173,0 0.68085,-3.12963 -1.78086,-4.06556 -3.98691,-1.51583 -5.30787,-0.58805 -4.67914,3.28641 0.39057,2.4068 -0.004,3.99699 -1.42922,5.75679 l -1.96886,2.43143 2.47806,1.94924 c 2.12925,1.67487 2.39093,2.49406 1.85909,5.81998 l -0.61896,3.87075 3.76574,-2.38328 c 2.07116,-1.31081 3.74688,-3.00934 3.72382,-3.77452 z m 27.91692,0.98376 c 1.12035,-5.60176 0.73163,-6.5559 -1.375,-3.375 -2.30803,3.48501 -2.59793,6.5 -0.625,6.5 0.75625,0 1.65625,-1.40625 2,-3.125 z m -468.375004,0.125 c 0,-1.1 -0.45,-2 -1,-2 -0.55,0 -1,0.9 -1,2 0,1.1 0.45,2 1,2 0.55,0 1,-0.9 1,-2 z M 495.3038,304.26017 c 0,-1.73491 -2.71236,-3.72796 -3.71242,-2.72791 -0.5795,0.57951 2.00313,4.62092 2.95297,4.62092 0.4177,0 0.75945,-0.85186 0.75945,-1.89301 z M 39.503796,301.15318 c 0.99,0 1.8,-0.41801 1.8,-0.92891 0,-0.5109 -1.57298,-0.8484 -3.49552,-0.75 -1.92253,0.0984 -3.49753,0.66641 -3.5,1.26224 -0.007,1.75364 1.28183,2.53036 2.37885,1.43334 0.55917,-0.55917 1.82667,-1.01667 2.81667,-1.01667 z m 80.312354,-0.58192 c 0.0284,-2.61427 -2.38625,-5.4037 -4.10631,-4.74365 -1.98455,0.76154 -1.7496,5.02644 0.34396,6.24364 2.35682,1.37026 3.73715,0.81994 3.76235,-1.49999 z m 136.48764,-6.91808 c 0,-1.55556 -0.56667,-2.5 -1.5,-2.5 -1.4999,0 -2.09131,3.07536 -0.83333,4.33333 1.3596,1.35961 2.33333,0.59454 2.33333,-1.83333 z m 156.94665,-0.93572 c 0.65535,-0.78965 2.46469,-1.71535 4.02075,-2.05712 1.5563,-0.34182 3.04614,-1.45092 3.31135,-2.46511 0.26518,-1.01405 1.41545,-2.34321 2.55616,-2.9537 1.75954,-0.94168 2.55371,-0.64106 5.23773,1.98266 1.74005,1.70095 3.53213,2.71831 3.98241,2.26081 0.45028,-0.4575 0.9596,-2.81099 1.13182,-5.22998 0.38159,-5.35968 2.71762,-7.40324 5.54148,-4.84769 1.13284,1.0252 2.70203,1.44607 4.06386,1.08994 1.22015,-0.31908 2.87134,-0.0383 3.66932,0.62398 2.04595,1.69798 3.53848,0.42116 3.53848,-3.02709 0,-1.61754 0.83487,-3.77585 1.85527,-4.79625 1.02039,-1.02039 2.13503,-2.96995 2.47697,-4.33234 0.44976,-1.79198 1.76682,-2.85499 4.7621,-3.84352 2.86743,-0.94634 4.91379,-2.53514 6.65591,-5.16766 2.77113,-4.18746 5.59693,-4.88953 7.24975,-1.80121 1.37137,2.56243 3.20311,2.53804 5.56708,-0.0741 1.26004,-1.39232 2.68516,-1.91964 4.33539,-1.60418 1.35208,0.25846 3.24061,-0.0186 4.19673,-0.61571 2.39141,-1.49347 5.21025,0.89493 4.6312,3.92401 -0.32943,1.7233 0.22101,2.52146 2.34587,3.4016 4.30215,1.78201 6.92373,0.46567 6.92373,-3.47653 0,-1.8206 0.62471,-3.82863 1.38824,-4.4623 1.63207,-1.3545 8.70542,-0.47598 11.27076,1.39985 1.55229,1.13506 1.57592,1.71093 0.27058,6.59359 -1.30796,4.89244 -1.74734,5.43888 -5.13837,6.3903 -3.94917,1.10803 -6.57396,3.07408 -5.51621,4.13183 1.3923,1.3923 5.94905,0.5283 7.82317,-1.48333 1.08886,-1.16875 2.65133,-2.125 3.47217,-2.125 2.07805,0 2.97601,2.89551 1.58748,5.1189 -1.88632,3.02047 -1.46634,6.8811 0.74856,6.8811 1.41405,0 1.77131,-0.51651 1.38337,-2 -0.28766,-1.1 -0.0205,-2.05625 0.59362,-2.125 0.61415,-0.0688 2.57913,-0.29476 4.36663,-0.50224 1.7875,-0.20748 4.4875,-0.39434 6,-0.41525 1.5125,-0.0209 2.75,-0.46991 2.75,-0.99777 0,-0.52789 -1.63421,-0.95977 -3.63158,-0.95977 -2.95605,0 -4.44637,-0.81479 -8.01179,-4.38021 l -4.38021,-4.38021 2.19118,-5.86979 c 2.62733,-7.03815 2.23753,-6.44198 4.49077,-6.86831 1.0129,-0.19165 2.02387,-0.38289 2.24662,-0.42497 0.22274,-0.0421 -0.39434,-0.95975 -1.37128,-2.03926 -0.97695,-1.07952 -1.50823,-2.66127 -1.18062,-3.51501 0.85779,-2.23536 5.49292,-3.71913 9.07063,-2.90364 1.69196,0.38565 5.22541,0.74331 7.85213,0.79479 3.74119,0.0733 4.71432,-0.23213 4.49181,-1.4099 -0.17313,-0.91645 -1.64743,-1.62894 -3.77585,-1.82479 -4.78606,-0.44038 -5.40202,-1.36396 -3.88776,-5.82935 1.94011,-5.72116 4.76046,-8.50151 8.26363,-8.14641 3.41615,0.34627 4.16226,1.51513 5.29627,8.29706 0.74679,4.46615 1.12967,5.03378 3.58605,5.31642 2.52443,0.29047 2.75,0.0366 2.75,-3.09501 0,-2.12788 0.74363,-4.08441 1.97642,-5.20007 2.2643,-2.04917 1.84709,-3.25774 -1.57356,-4.55827 -3.20232,-1.21752 -3.18091,-4.71676 0.0363,-5.93995 1.34156,-0.51006 2.93239,-1.84893 3.53518,-2.97525 1.23772,-2.31271 5.20351,-2.74338 6.86186,-0.74519 0.78515,0.94604 0.69362,2.04962 -0.3343,4.03094 -2.16982,4.18234 -1.01612,5.66638 4.40505,5.66638 6.88568,0 9.64274,4.10069 4.96155,7.37952 -1.17285,0.8215 -1.88715,2.1296 -1.58824,2.90855 0.75393,1.96472 8.33635,5.56689 9.80606,4.65856 2.38505,-1.47405 0.0302,-7.26498 -5.05814,-12.43894 -2.70867,-2.75423 -6.18561,-6.87565 -7.72654,-9.15871 -2.58915,-3.83613 -16.11054,-15.58081 -20.84989,-18.11022 -8.05231,-4.29755 -35.42703,-7.49452 -46.18116,-5.39329 -20.99469,4.10212 -26.70855,5.59755 -36.16833,9.46597 -10.62335,4.34424 -28.43551,15.20275 -33.4832,20.41176 -1.47994,1.52724 -4.48066,4.85862 -6.66827,7.40307 l -3.97746,4.62627 2.51331,1.64678 c 4.6072,3.01876 1.82211,10.20668 -3.65422,9.43104 -1.90055,-0.26918 -2.38994,-1.02478 -2.64284,-4.08036 -0.1707,-2.0625 -0.64901,-3.75 -1.0629,-3.75 -0.4139,0 -2.07424,1.38098 -3.68964,3.06884 -1.6154,1.68786 -5.41209,4.95036 -8.43709,7.25 -3.025,2.29964 -6.08471,4.73373 -6.79936,5.4091 -0.71465,0.67536 -1.83965,1.57652 -2.5,2.00257 -3.88921,2.50927 -6.04289,6.41714 -5.98326,10.8567 0.0757,5.63609 1.22953,7.04676 4.38328,5.35892 1.27346,-0.68154 3.23427,-1.28573 4.35736,-1.34264 1.51023,-0.0765 2.43259,-1.30713 3.54198,-4.72563 0.825,-2.54217 2.1176,-5.35467 2.87244,-6.25 1.96824,-2.33453 6.19009,-2.10477 6.83781,0.37214 0.77423,2.96064 2.28975,2.42527 2.28975,-0.80887 0,-3.68329 2.22945,-6.7008 4.34967,-5.88719 2.3325,0.89506 5.64218,6.70611 5.64659,9.91412 0.003,1.93466 -0.7693,3.1231 -2.67838,4.12337 -2.18212,1.14333 -2.69478,2.128 -2.75,5.28194 -0.056,3.19985 -0.44965,3.93097 -2.25468,4.1879 -1.48059,0.21075 -2.75516,-0.55615 -3.94671,-2.37469 -1.67401,-2.55486 -1.67498,-2.83395 -0.0198,-5.71789 1.20829,-2.10532 1.42121,-3.35081 0.69671,-4.07531 -0.72449,-0.72451 -1.04336,-0.37368 -1.04336,1.14792 0,2.54937 -5.51085,8.2087 -7.99333,8.2087 -0.93318,0 -2.50079,0.88851 -3.48357,1.97447 -0.98278,1.08596 -2.63405,2.24336 -3.6695,2.572 -2.41112,0.76526 -1.72678,1.79176 3.99252,5.98878 5.00607,3.67362 8.20271,4.31577 10.10053,2.02903 z m -7.77669,-5.73424 c 0.22003,-1.55336 0.99671,-2.33004 2.33004,-2.33004 2.97814,0 2.6806,3.9036 -0.33004,4.33004 -1.93881,0.27462 -2.27462,-0.0612 -2,-2 z m 29.83004,-14.76049 c 0,-1.55658 0.63784,-2.06955 2.57332,-2.06955 3.28235,0 2.99022,3.34535 -0.33354,3.81955 -1.70114,0.2427 -2.23978,-0.17815 -2.23978,-1.75 z m 7.66668,-2.73622 c -1.14565,-1.14564 -0.7276,-9.8724 0.53333,-11.13333 0.66,-0.66 2.92583,-1.2 5.03518,-1.2 2.10935,0 4.85444,-0.66784 6.1002,-1.4841 2.00923,-1.31649 2.51344,-1.31009 4.46482,0.0567 4.18697,2.93266 1.48029,8.09802 -3.5536,6.78163 -1.53023,-0.40017 -2.54123,0.20546 -3.84171,2.30134 -2.93891,4.7364 -6.67798,6.738 -8.73822,4.67775 z m -12.91668,-1.4216 c -4.04851,-2.33913 -0.247,-8.32726 4.91157,-7.73669 2.20373,0.2523 2.90564,0.90312 3.139,2.91056 0.45377,3.90361 -4.50364,6.87546 -8.05057,4.82613 z m 63.63001,-11.36384 c -0.71221,-1.85601 0.32689,-3.54789 2.17902,-3.54789 0.87038,0 1.44098,0.98995 1.44098,2.5 0,2.74771 -2.67102,3.52089 -3.62,1.04789 z m -58.89964,-0.57965 c -0.38836,-0.62838 -0.23556,-1.61305 0.33954,-2.18815 1.3439,-1.3439 4.47715,-0.17169 3.93039,1.47044 -0.5566,1.67168 -3.38638,2.14732 -4.26993,0.71771 z m 18.76964,-5.02405 c -1.30663,-0.51088 -2.25,-1.73181 -2.25,-2.91197 0,-2.4052 -0.83445,-2.51831 -4.51012,-0.61135 -1.5063,0.78148 -3.24523,1.26906 -3.8643,1.08352 -0.61907,-0.18554 -2.39146,-0.61562 -3.93864,-0.95575 -2.34362,-0.5152 -2.76082,-1.06511 -2.50001,-3.29522 0.25893,-2.21395 1.09118,-2.90835 4.81307,-4.01581 2.475,-0.73645 5.91925,-1.12649 7.65389,-0.86677 2.45042,0.3669 3.26003,0.0663 3.62975,-1.34746 0.79682,-3.04706 5.46219,-5.50082 8.44027,-4.43917 3.91363,1.39516 5.06893,3.88223 2.91102,6.26669 -1.694,1.87185 -1.69542,2.01587 -0.0291,2.9484 1.32407,0.74099 2.13743,0.50435 3.33045,-0.96898 1.39121,-1.71806 2.1106,-1.82986 6.06207,-0.94202 8.02583,1.80328 15.45792,-0.40811 17.26886,-5.1383 0.96563,-2.52221 3.62948,-2.15186 4.69583,0.65286 0.50246,1.32157 1.39132,2.69813 1.97525,3.05902 0.58392,0.36088 1.06168,1.96922 1.06168,3.57408 0,3.81877 -3.82981,6.5135 -7.75185,5.45434 -4.79067,-1.29372 -11.31115,-0.65068 -14.90535,1.46995 -4.40766,2.60058 -7.96419,2.61571 -9.3428,0.0398 -0.95559,-1.78554 -1.30786,-1.85191 -3.28518,-0.61897 -3.1621,1.97171 -6.85858,2.5822 -9.46482,1.56316 z m 1.25,-7.94419 c -0.33992,-0.55 -1.04148,-1 -1.55902,-1 -0.51754,0 -0.94098,0.45 -0.94098,1 0,0.55 0.70156,1 1.55902,1 0.85746,0 1.2809,-0.45 0.94098,-1 z m 49.77992,5.97058 c -2.67567,-1.0654 -3.86176,-5.01488 -2.3528,-7.83441 0.63402,-1.18466 2.56956,-2.32632 4.58503,-2.70443 4.07597,-0.76465 4.51057,-1.95824 1.03101,-2.83155 -1.69058,-0.42431 -3.08833,-2.0442 -4.48153,-5.19378 -1.85152,-4.18565 -1.89642,-4.82521 -0.52497,-7.47729 1.52169,-2.94264 5.40137,-4.70348 7.50232,-3.40503 0.75657,0.46759 0.92857,2.20666 0.50054,5.06096 -0.6109,4.07373 -0.48906,4.38951 1.92751,4.99603 1.4188,0.3561 3.23502,1.58316 4.03606,2.7268 1.28391,1.83303 1.26954,2.28588 -0.12129,3.82272 -0.95765,1.0582 -1.25551,2.25941 -0.75788,3.05639 1.50169,2.40503 1.25233,4.03261 -0.6959,4.54208 -1.06041,0.27731 -1.92802,1.07161 -1.92802,1.76512 0,2.79939 -5.20701,4.87524 -8.72008,3.47639 z m 15.08651,-6.45807 c -0.31394,-0.81812 -0.0748,-2.91027 0.53138,-4.64922 1.80109,-5.16661 1.41446,-9.6294 -0.89781,-10.36329 -3.50143,-1.11131 -2.41667,-4.34947 2.05663,-6.13933 3.06689,-1.22713 3.89314,-2.01809 3.38654,-3.24191 -1.66445,-4.02093 -1.52076,-5.40312 0.94978,-9.13637 2.61286,-3.94828 5.43202,-5.01547 8.35156,-3.16145 2.31034,1.46715 -0.9765,19.96834 -3.86458,21.75327 -1.8681,1.15455 -0.74589,3.57656 2.12007,4.57563 4.39696,1.53279 3.52503,6.85016 -1.12327,6.85016 -0.94781,0 -3.06027,1.125 -4.69436,2.5 -3.35617,2.82403 -5.9717,3.21257 -6.81594,1.01251 z m -64.39118,-14.07761 c -1.35133,-3.55427 -1.22496,-4.98277 0.57278,-6.47476 1.27205,-1.05571 2.16895,-0.98866 5.03082,0.37607 4.56455,2.17668 5.39328,4.45819 2.47712,6.81955 -3.34485,2.7085 -6.89737,2.39159 -8.08072,-0.72086 z m 34.43449,1.19048 c -1.19844,-3.12308 0.0142,-5.12538 3.10396,-5.12538 2.65144,0 2.9863,0.33639 2.9863,3 0,2.53088 -0.43092,3.04957 -2.75569,3.31697 -1.75858,0.20228 -2.96514,-0.22887 -3.33457,-1.19159 z m 50.19361,-4.21664 c -1.03889,-2.70731 2.0206,-6.40874 5.29726,-6.40874 3.42691,0 5.37184,2.05105 4.92615,5.19496 -0.27983,1.97397 -0.99088,2.34808 -4.95072,2.60468 -3.60126,0.23337 -4.76744,-0.0743 -5.27269,-1.3909 z m -70.22335,-0.86085 c -0.82613,-2.15288 0.42384,-3.54789 3.17902,-3.54789 1.93705,0 2.44098,0.51612 2.44098,2.5 0,2.00827 -0.49791,2.5 -2.53138,2.5 -1.39227,0 -2.78214,-0.65345 -3.08862,-1.45211 z m 5.85832,-6.70957 c -3.15466,-3.15466 0.64687,-8.10519 4.21851,-5.49355 2.34463,1.71444 1.6911,6.06237 -0.96851,6.44355 -1.10642,0.15858 -2.56892,-0.26892 -3.25,-0.95 z m 10.26168,-0.83832 c -0.99549,-1.1 -1.46013,-2 -1.03254,-2 0.42758,0 0.27003,-0.61138 -0.35014,-1.35863 -1.62505,-1.95807 2.36371,-6.85716 5.24807,-6.4458 1.17404,0.16744 2.1415,0.75443 2.14992,1.30443 0.008,0.55 0.29176,1.45 0.62963,2 0.98257,1.59947 0.0786,6.74183 -1.34371,7.64401 -2.04222,1.29537 -3.34879,1.01341 -5.30123,-1.14401 z m 24.43043,-2.58382 c -1.86639,-2.24886 0.0703,-4.91618 3.56957,-4.91618 3.10514,0 5.1474,2.37051 4.19053,4.86408 -0.81415,2.12163 -6.01356,2.15654 -7.7601,0.0521 z m 32.1094,-1.86819 c -2.01624,-2.42942 -0.30142,-5.71438 2.79601,-5.35613 2.19645,0.25404 2.71917,0.8787 2.97752,3.55814 0.2762,2.86461 0.0239,3.25 -2.12756,3.25 -1.3425,0 -2.98319,-0.65341 -3.64597,-1.45201 z m -46.78983,-2.25372 c -4.52788,-0.87211 -1.62064,-7.77 2.99834,-7.11404 1.64456,0.23355 2.34066,1.09938 2.58174,3.21126 0.28625,2.50763 -1.20153,4.8507 -2.83008,4.45702 -0.275,-0.0665 -1.5125,-0.31589 -2.75,-0.55424 z m 18.37775,-4.82196 c -0.86824,-2.26258 -0.86318,-2.27594 1.29981,-3.43354 2.7031,-1.44665 5.24165,-0.22901 4.87531,2.33851 -0.38478,2.6968 -5.23071,3.55612 -6.17512,1.09503 z m -408.12291,84.27769 c -0.40063,-1.2375 -0.95092,-5.48515 -1.22286,-9.43922 -0.46624,-6.77915 -0.34165,-7.34202 2.18426,-9.86793 2.41918,-2.41918 2.56305,-2.95793 1.48491,-5.56078 -0.65658,-1.58514 -1.75351,-2.88207 -2.43761,-2.88207 -2.33542,0 -6.51354,4.12821 -6.51354,6.43574 0,2.23898 -7.84396,10.61722 -11.04502,11.79734 -2.20021,0.81114 2.35145,5.03043 9.39657,8.7104 7.16347,3.7418 9.16775,3.94006 8.15329,0.80652 z m -73.965904,-0.81301 c 0.36134,-0.58466 -0.0621,-1.85759 -0.94098,-2.82874 -0.87888,-0.97115 -1.59796,-2.9678 -1.59796,-4.43699 0,-1.6166 -0.54999,-2.67126 -1.39301,-2.67126 -2.53117,0 -3.48362,5.49349 -1.57181,9.06574 1.11422,2.08194 4.43102,2.60699 5.50376,0.87125 z M 493.3038,287.5192 c 0,-1.44869 -0.53512,-4.42005 -1.18915,-6.60302 -1.1056,-3.69016 -1.02523,-4.09269 1.14382,-5.72881 1.30054,-0.981 2.02194,-2.26302 1.63013,-2.89698 -0.77232,-1.24964 -4.68098,-1.59159 -4.42604,-0.38721 0.36264,1.71315 -1.49419,4.25 -3.11076,4.25 -3.24754,0 -5.20535,-3.39752 -4.69211,-8.14252 0.45145,-4.17364 0.40654,-4.26255 -1.06425,-2.10748 -1.08629,1.59167 -2.53121,2.25 -4.93836,2.25 -2.71871,0 -3.59582,0.50774 -4.36302,2.52563 -1.3764,3.62019 -3.89177,4.2564 -5.96446,1.50858 -1.49016,-1.97556 -1.8021,-2.05954 -2.34968,-0.63257 -0.8409,2.19136 0.35184,10.59836 1.50364,10.59836 0.49935,0 0.83487,-0.5625 0.74559,-1.25 -0.43416,-3.34347 0.22126,-4.33576 3.00393,-4.54779 2.17206,-0.1655 3.09423,0.29651 3.56739,1.78729 0.75557,2.38059 4.12304,2.61271 6.94446,0.4787 3.0296,-2.29148 4.76145,-1.781 8.90782,2.62564 2.85668,3.036 3.73029,4.71129 3.38867,6.49836 -0.25315,1.32429 -0.0727,2.4078 0.40105,2.4078 0.47373,0 0.86133,-1.18529 0.86133,-2.63398 z m -367,-1.46165 c 0,-1.8136 -4.03858,-6.90437 -5.47734,-6.90437 -1.02297,0 -0.88266,0.94899 0.59143,4 1.7702,3.6639 4.88591,5.51599 4.88591,2.90437 z m 6,-3.40437 c 0,-0.825 -0.675,-1.5 -1.5,-1.5 -1.56157,0 -1.98397,1.1827 -0.83333,2.33333 1.15063,1.15064 2.33333,0.72824 2.33333,-0.83333 z m 10.38994,-8.25 c -0.35648,-1.5125 -1.10629,-3.2 -1.66623,-3.75 -0.68709,-0.6749 -0.80767,-0.40448 -0.37089,0.83179 0.35595,1.00748 0.64718,2.69498 0.64718,3.75 0,1.05501 0.45857,1.91821 1.01905,1.91821 0.60216,0 0.75389,-1.12503 0.37089,-2.75 z m -108.789654,0.98469 c 3.86775,-2.58256 3.45275,-8.40381 -0.4502,-6.31502 -3.05663,1.63586 -4.73448,5.09521 -3.00334,6.19219 1.6508,1.04606 2.04963,1.06025 3.45354,0.12283 z M 163.3038,273.7122 c 0,-0.24254 -0.45,-0.7191 -1,-1.05902 -0.55,-0.33992 -1,-0.14148 -1,0.44098 0,0.58246 0.45,1.05902 1,1.05902 0.55,0 1,-0.19844 1,-0.44098 z m -95.141384,-6.60641 c 2.01478,-5.96607 1.93621,-9.38422 -0.19933,-8.67237 -1.59059,0.53019 -5.47191,10.7203 -4.90663,12.88195 0.92918,3.55317 3.08454,1.77619 5.10596,-4.20958 z m 514.488494,4.29477 c 0.43996,-0.71188 -1.67351,-7.90712 -2.59252,-8.82613 -0.23646,-0.23646 -1.81734,0.26221 -3.51307,1.10815 l -3.08314,1.53807 2.42081,2.42081 c 1.33145,1.33145 2.42081,2.89127 2.42081,3.46627 0,1.19154 3.64013,1.43675 4.34711,0.29283 z m -454.17585,-1.90237 c 2.33089,-2.10942 2.32742,-4.00775 -0.01,-5.25849 -3.08842,-1.65309 -6.16126,-0.22509 -6.16126,2.86344 0,4.40474 2.76488,5.47778 6.17126,2.39505 z m 438.01634,-2.09501 c 0.10318,-2.0625 0.23151,-5.44083 0.28518,-7.50741 0.0619,-2.38447 0.86486,-4.52468 2.19745,-5.85726 1.84661,-1.84661 1.94441,-2.3995 0.81092,-4.5843 -0.89055,-1.71654 -1.01375,-3.44398 -0.39858,-5.58892 0.94026,-3.27852 -0.94093,-7.71211 -3.27229,-7.71211 -0.62899,0 -0.87234,0.27127 -0.54079,0.60282 0.33155,0.33156 0.16346,1.75845 -0.37355,3.17087 -0.71321,1.8759 -0.55971,3.60937 0.56956,6.43168 1.27288,3.18125 1.3428,4.69649 0.39588,8.57914 -1.42054,5.82464 -2.46348,7.21549 -5.41058,7.21549 -2.86488,0 -5.88748,-5.16095 -4.0831,-6.97169 0.84379,-0.84677 0.4953,-1.62647 -1.3677,-3.06007 -3.44578,-2.65155 -5.83513,-2.47333 -6.57906,0.49074 -1.24179,4.94768 -5.02628,5.58454 -7.32509,1.23268 -0.74473,-1.40985 -0.96864,-1.53906 -0.62767,-0.3622 1.59078,5.49071 -4.30534,10.39165 -11.19986,9.30948 -1.77742,-0.27899 -3.492,-0.086 -3.81017,0.42878 -0.94325,1.52621 4.74395,3.13835 8.80946,2.49719 4.68853,-0.73941 8.73239,0.2069 8.73239,2.0435 0,1.00324 1.39534,1.39159 5,1.39159 4.30349,0 5,-0.2737 5,-1.96482 0,-2.53507 3.23184,-4.23825 7.29621,-3.84509 3.0044,0.29062 3.19669,0.54329 3.08973,4.05991 -0.0778,2.55632 0.32014,3.75 1.25,3.75 0.87623,0 1.43115,-1.34111 1.55166,-3.75 z m -20.9376,-3.35771 c -3.42195,-0.99971 -4.59257,-4.43987 -1.86673,-5.48587 2.41491,-0.92669 8.81122,2.34514 8.4322,4.31323 -0.40756,2.11631 -2.22452,2.44084 -6.56547,1.17264 z m -370.25,3.10771 c 0,-1.23916 -2.87107,-2.01763 -3.52699,-0.95633 -0.90511,1.4645 0.41087,2.93812 2.05902,2.30567 0.80738,-0.30983 1.46797,-0.91703 1.46797,-1.34934 z m -91,-0.5 c 0,-0.825 -0.45,-1.5 -1,-1.5 -0.55,0 -1,0.675 -1,1.5 0,0.825 0.45,1.5 1,1.5 0.55,0 1,-0.675 1,-1.5 z m 509,-8.54966 c 0,-1.87103 -3.02016,-6.95034 -4.13267,-6.95034 -0.59472,0 -0.80624,0.71681 -0.47005,1.5929 0.33619,0.8761 0.88311,2.6761 1.21539,4 0.58721,2.33962 3.38733,3.46174 3.38733,1.35744 z m -472.84247,-2.70034 c 0.0866,-0.9625 0.10747,-2.425 0.0463,-3.25 -0.0612,-0.825 0.28068,-2.95896 0.75969,-4.74214 1.37705,-5.12615 -0.4235,-4.66385 -2.86359,0.73524 -1.755,3.88323 -1.99082,5.34221 -1.125,6.96002 1.34213,2.50779 2.96993,2.65963 3.18262,0.29688 z m 412.56566,-0.27462 c -0.0955,-1.26836 -0.66317,-1.82865 -1.51964,-1.5 -0.75192,0.28854 -1.83542,0.52462 -2.40778,0.52462 -0.63011,0 -0.54954,0.59177 0.20423,1.5 1.78319,2.14861 3.90207,1.85005 3.72319,-0.52462 z m 50.57607,-5.30019 c -0.28064,-0.45408 -1.57038,0.17034 -2.86609,1.38759 -1.94217,1.82458 -2.16397,2.57171 -1.26313,4.25494 1.03639,1.93651 1.18411,1.86499 2.86609,-1.38759 0.97536,-1.88613 1.54377,-3.80086 1.26313,-4.25494 z m -488.13013,1.07481 c 2.15047,-1.73269 2.71547,-3.85345 1.73169,-6.5 -0.82652,-2.22351 -3.29742,-3.03534 -4.30018,-1.41284 -0.28456,0.46043 -0.93829,2.71043 -1.45272,5 -0.81336,3.62001 -0.71331,4.16284 0.76725,4.16284 0.93641,0 2.4007,-0.5625 3.25396,-1.25 z m 19.22713,-7.34024 c 0.74256,-1.93509 -0.0526,-3.40976 -1.83865,-3.40976 -1.37399,0 -2.76277,3.46151 -1.78218,4.4421 1.08696,1.08695 3.01895,0.53612 3.62083,-1.03234 z m 138.60373,-0.40976 c 0,-0.55 -0.47656,-1 -1.05902,-1 -0.58246,0 -0.7809,0.45 -0.44098,1 0.33992,0.55 0.81648,1 1.05902,1 0.24254,0 0.44098,-0.45 0.44098,-1 z m -111.18834,-5.20055 c 0.60594,-5.25069 -2.8737,-8.31283 -6.69568,-5.89229 -2.18448,1.38349 1.68442,9.1915 4.38403,8.84761 1.34704,-0.17159 2.10175,-1.13644 2.31165,-2.95532 z m 45.97222,1.35529 c 1.51311,-0.9601 0.67314,-3.76539 -1.36119,-4.54604 -0.78247,-0.30026 -1.42268,-1.20954 -1.42268,-2.02061 0,-0.81108 -0.79532,-2.0627 -1.76738,-2.78139 -0.97206,-0.71868 -2.55333,-2.53793 -3.51393,-4.04277 -2.52052,-3.94855 -6.22798,-6.10391 -9.2114,-5.35511 -3.72808,0.93568 -3.24245,4.22488 0.99271,6.72368 1.925,1.13578 3.5048,2.3581 3.51067,2.71628 0.022,1.3412 8.82702,10.15061 10.1309,10.13591 0.74714,-0.008 1.93617,-0.3819 2.6423,-0.82995 z m -31.78387,-4.03811 c 0,-1.07734 -3.03018,-1.94919 -4.75623,-1.36846 -0.69093,0.23246 -1.00187,0.83422 -0.69098,1.33724 0.72498,1.17305 5.44721,1.20011 5.44721,0.0312 z m 66,-3.11663 c 0,-0.55 -1.6875,-0.94676 -3.75,-0.88169 -3.73221,0.11776 -3.73577,0.12194 -0.75,0.88169 4.32987,1.10176 4.5,1.10176 4.5,0 z m -64.93675,-4.57622 c 1.64336,-1.98012 -0.16222,-3.38554 -4.37899,-3.40847 -1.54866,-0.008 -3.69284,-0.48472 -4.76484,-1.05843 -1.53853,-0.8234 -2.08642,-0.68527 -2.60102,0.65575 -1.5552,4.05279 8.76501,7.40165 11.74485,3.81115 z m 8.93675,-0.42378 c 0,-0.55 -0.675,-1 -1.5,-1 -0.825,0 -1.5,0.45 -1.5,1 0,0.55 0.675,1 1.5,1 0.825,0 1.5,-0.45 1.5,-1 z m 49,-32.94098 c 0,-2.5212 -1.71458,-3.54079 -3.48436,-2.072 -1.82078,1.51111 -0.82866,4.01298 1.59135,4.01298 1.20716,0 1.89301,-0.70323 1.89301,-1.94098 z m -8.45888,-3.12555 c 0.92034,-1.48915 -0.14673,-2.29879 -2.06137,-1.56407 -0.88358,0.33906 -1.32643,1.06965 -0.98412,1.62354 0.81058,1.31154 2.21511,1.28411 3.04549,-0.0595 z m 13.45888,-7.93347 c 0,-2.08345 -3.26379,-6 -5,-6 -1.41265,0 -1.24304,1.62934 0.52568,5.04966 1.73812,3.36115 4.47432,3.94232 4.47432,0.95034 z m -12,-12 c 0,-0.55 -0.70156,-1 -1.55902,-1 -0.85746,0 -1.2809,0.45 -0.94098,1 0.33992,0.55 1.04148,1 1.55902,1 0.51754,0 0.94098,-0.45 0.94098,-1 z m 37.68847,-60.63056 c 0.87077,-2.26921 -2.37656,-7.90628 -5.32966,-9.2518 -3.11966,-1.421425 -7.18481,-1.422855 -11.25503,-0.004 -4.11812,1.43558 -3.54952,2.90441 1.81676,4.69317 2.36255,0.78751 6.15942,2.49772 8.43749,3.80045 4.93121,2.81995 5.51386,2.89009 6.33044,0.76214 z m -81.27328,453.20915 c -3.76225,-1.63809 -7.4301,-6.09702 -7.3732,-8.96345 0.0231,-1.16333 0.8524,-5.49014 1.84291,-9.61514 l 1.80093,-7.5 3.82807,-0.32056 c 5.73939,-0.48061 11.85875,2.24045 14.00623,6.22808 1.5938,2.95951 1.66582,4.03611 0.61692,9.22159 -0.65315,3.22899 -1.32201,6.9204 -1.48635,8.20313 -0.16433,1.28273 -0.94047,2.73834 -1.72475,3.23469 -2.07309,1.312 -7.94831,1.06275 -11.51076,-0.48834 z m 54.21127,-44.49163 c -1.906,-1.99035 -2.6522,-3.5775 -2.21618,-4.71375 0.56083,-1.46149 1.21051,-1.17292 4.42411,1.96507 3.5897,3.50525 3.99937,3.64815 8.71618,3.0403 3.55766,-0.45848 4.66445,-0.33046 3.93597,0.45526 -0.55741,0.6012 -3.48241,1.35426 -6.5,1.67346 -5.1406,0.54378 -5.66772,0.39117 -8.36008,-2.42034 z m -10.12646,0.91304 c 0.33992,-0.55 1.23992,-1 2,-1 0.76008,0 1.66008,0.45 2,1 0.35191,0.5694 -0.50929,1 -2,1 -1.49071,0 -2.35191,-0.4306 -2,-1 z m 44.49999,-6 c 0,-0.55 0.675,-1 1.5,-1 0.825,0 1.5,0.45 1.5,1 0,0.55 -0.675,1 -1.5,1 -0.825,0 -1.5,-0.45 -1.5,-1 z m 7.55,-2.88761 c 0.5225,-0.48818 2.075,-1.18195 3.45,-1.54171 l 2.5,-0.65411 -2.5,1.50628 c -2.78621,1.67872 -4.97746,2.11668 -3.45,0.68954 z m 7.85084,-4.00282 c 0.94095,-1.03974 4.32616,-3.2844 7.52269,-4.98813 3.19653,-1.70373 6.37651,-3.77804 7.06662,-4.60957 0.69011,-0.83153 1.87334,-1.51187 2.62941,-1.51187 0.75607,0 3.06347,-1.48309 5.12756,-3.29575 2.06408,-1.81266 4.95763,-4.05158 6.4301,-4.97537 1.47247,-0.92379 2.82247,-2.7032 3,-3.95425 0.24034,-1.69369 1.08898,-2.35985 3.32278,-2.60829 3.61794,-0.40239 6.10697,-2.46426 6.92912,-5.73994 0.68249,-2.71928 3.31443,-3.25828 4.23216,-0.8667 0.91298,2.37917 -3.62823,6.51424 -19.66128,17.90286 -12.46091,8.85126 -25.30099,16.53744 -27.62647,16.53744 -0.37593,0 0.0864,-0.85069 1.02731,-1.89043 z m 16.30907,-30.73299 c -0.9479,-0.9479 1.19974,-3.37658 2.98586,-3.37658 1.92401,0 1.24522,3.38768 -0.75602,3.77309 -0.8455,0.16283 -1.84893,-0.0156 -2.22984,-0.39651 z m 19.25864,-8.94995 c -2.28053,-5.32026 -1.60709,-7.50528 2.88688,-9.36675 2.12135,-0.87869 3.41803,-2.50621 4.69042,-5.88715 0.96721,-2.57 2.36506,-5.56036 3.10635,-6.64524 0.74129,-1.08487 1.3478,-3.16727 1.3478,-4.62755 0,-3.31457 2.13388,-5.36606 3.82379,-3.67615 1.63055,1.63055 1.48452,11.89045 -0.20358,14.3037 -0.75888,1.08488 -1.54875,2.85278 -1.75525,3.92866 -0.21008,1.09453 -1.47432,2.21324 -2.87021,2.53981 -2.12124,0.49626 -2.56961,1.2862 -2.99475,5.27618 -0.48475,4.54944 -2.8908,8.72786 -5.02575,8.72786 -0.57493,0 -1.92749,-2.05802 -3.0057,-4.57337 z m 14.03145,2.62042 c 0,-2.06022 2.32876,-5.65928 5.09428,-7.87311 4.14874,-3.32111 3.93383,-0.27782 -0.34428,4.87529 -3.21692,3.87487 -4.75,4.84243 -4.75,2.99782 z m -8,-26.04705 c 0,-0.55 0.45,-1 1,-1 0.55,0 1,0.45 1,1 0,0.55 -0.45,1 -1,1 -0.55,0 -1,-0.45 -1,-1 z m -12,-26.44098 c 0,-1.89319 1.43185,-2.71427 3.40976,-1.95528 2.5358,0.97308 1.88671,3.39626 -0.90976,3.39626 -1.51005,0 -2.5,-0.5706 -2.5,-1.44098 z M 64.970466,344.48651 c -1.04605,-1.04604 -0.71708,-4.61499 0.65268,-7.08096 0.68667,-1.2362 3.03322,-3.15966 5.21457,-4.27435 6.66443,-3.4056 10.11453,-3.44914 18.966084,-0.23935 7.05516,2.55837 8.03737,3.21753 8.31642,5.58116 0.30186,2.55681 0.10925,2.68017 -4.1849,2.68017 -2.47573,0 -5.68122,-0.4486 -7.12332,-0.99688 -3.18843,-1.21224 -15.391654,1.52957 -16.201554,3.64015 -0.53592,1.39658 -4.45408,1.87597 -5.63998,0.69006 z M 82.5538,316.46955 c -2.829424,-0.57277 -3.282314,-5.3447 -0.5,-5.26834 2.38509,0.0655 8.50077,3.21727 8.63847,4.45197 0.12091,1.0841 -4.51747,1.54938 -8.13847,0.81637 z m 199.93855,-4.35533 c -2.82797,-2.63465 -2.75809,-3.85516 0.49075,-8.57149 4.21629,-6.12079 3.04487,-16.19121 -2.15923,-18.56236 -2.81421,-1.28223 -3.32457,-3.58125 -0.99357,-4.47574 2.55239,-0.97944 6.47349,-8.72545 6.47349,-12.78818 0,-4.91785 1.99101,-8.94419 7.58511,-15.33909 5.24708,-5.9982 8.41489,-6.86897 8.41489,-2.31307 0,2.0297 -0.94146,3.70329 -3.10946,5.52754 -2.59328,2.1821 -3.02851,3.15137 -2.62181,5.83889 0.54087,3.57424 -1.5185,8.48263 -4.41764,10.52916 -1.0181,0.71869 -1.85109,1.71475 -1.85109,2.21346 0,0.49871 3.99609,2.76342 8.88021,5.03267 9.54863,4.43649 10.72343,5.77624 11.77176,13.42466 0.63185,4.60985 -0.83136,8.52251 -3.18715,8.52251 -0.82837,0 -1.46482,-0.92631 -1.46482,-2.13192 0,-3.3485 -6.50341,-8.86808 -10.44876,-8.86808 -4.5578,0 -5.85572,1.79762 -4.40573,6.10196 0.62957,1.86892 1.62216,4.00594 2.20575,4.74892 2.78836,3.54993 0.1505,9.47497 -5.22338,11.73251 -4.09514,1.72034 -3.33978,1.79949 -5.93932,-0.62235 z m 21.15323,-0.52834 c -3.4624,-3.4624 -3.01584,-4.72237 1.40879,-3.97484 3.41251,0.57654 4.07197,0.29151 7.31605,-3.1621 1.96101,-2.08767 3.86304,-4.59347 4.22674,-5.56844 0.69953,-1.87525 3.40245,-3.36484 4.36288,-2.4044 0.61952,0.61952 -6.41256,15.40844 -7.70708,16.20849 -0.43545,0.26913 -2.24834,0.65891 -4.02865,0.8662 -2.39234,0.27855 -3.84796,-0.23415 -5.57873,-1.96491 z m -142.70341,-5.9327 c -0.39152,-1.02029 0.054,-1.5 1.39301,-1.5 1.08322,0 1.96862,0.67464 1.96862,1.5 0,0.825 -0.62686,1.5 -1.39301,1.5 -0.76616,0 -1.65203,-0.675 -1.96862,-1.5 z m -83.638374,-0.5 c 0,-0.55 0.675,-1 1.5,-1 0.825,0 1.5,0.45 1.5,1 0,0.55 -0.675,1 -1.5,1 -0.825,0 -1.5,-0.45 -1.5,-1 z M 314.37784,280.74241 c -0.64396,-0.77592 -1.43293,-3.02592 -1.75328,-5 -0.5346,-3.29435 -0.38275,-3.58923 1.84839,-3.58923 3.42606,0 4.83084,1.80292 4.83084,6.2 0,3.05073 -0.37021,3.8 -1.87756,3.8 -1.03265,0 -2.40443,-0.63485 -3.04839,-1.41077 z m -95.43456,-26.28308 c -1.12618,-1.12619 -0.68589,-2.30615 0.86052,-2.30615 0.825,0 1.5,0.42344 1.5,0.94098 0,1.26098 -1.56159,2.1641 -2.36052,1.36517 z M 63.890096,231.02149 c 0.4379,-1.30257 1.55377,-5.29331 2.4797,-8.86831 1.24007,-4.78785 1.88262,-6.02281 2.43939,-4.6884 0.938,2.24814 -2.70584,14.92188 -4.45814,15.50598 -0.91209,0.30403 -1.0386,-0.23099 -0.46095,-1.94927 z m 118.089044,-29.5263 c -0.75703,-0.75703 1.13576,-3.34201 2.4471,-3.34201 0.48266,0 0.87756,0.9 0.87756,2 0,1.92166 -1.95562,2.71105 -3.32466,1.34201 z m -1.48367,-8.41701 c 0.19708,-0.59125 0.78583,-1.075 1.30833,-1.075 0.5225,0 1.11125,0.48375 1.30833,1.075 0.19709,0.59125 -0.39166,1.075 -1.30833,1.075 -0.91667,0 -1.50542,-0.48375 -1.30833,-1.075 z m -55.99167,-34.125 c -1.8346,-1.8346 -1.46392,-4.8 0.6,-4.8 2.78927,0 4.27886,1.98414 3.11801,4.1532 -1.15153,2.15166 -2.05584,2.30897 -3.71801,0.6468 z"
     id="path74"
     inkscape:connector-curvature="0" />
</svg>
