<?xml version="1.0" encoding="UTF-8" standalone="no"?>
<!-- Created with Inkscape (http://www.inkscape.org/) -->

<svg
   xmlns:dc="http://purl.org/dc/elements/1.1/"
   xmlns:cc="http://creativecommons.org/ns#"
   xmlns:rdf="http://www.w3.org/1999/02/22-rdf-syntax-ns#"
   xmlns:svg="http://www.w3.org/2000/svg"
   xmlns="http://www.w3.org/2000/svg"
   xmlns:sodipodi="http://sodipodi.sourceforge.net/DTD/sodipodi-0.dtd"
   xmlns:inkscape="http://www.inkscape.org/namespaces/inkscape"
   version="1.1"
   id="svg64"
   width="1000"
   height="1000"
   viewBox="0 0 1000 1000"
   sodipodi:docname="logoMain.svg"
   inkscape:version="0.92.3 (2405546, 2018-03-11)">
  <metadata
     id="metadata70">
    <rdf:RDF>
      <cc:Work
         rdf:about="">
        <dc:format>image/svg+xml</dc:format>
        <dc:type
           rdf:resource="http://purl.org/dc/dcmitype/StillImage" />
        <dc:title></dc:title>
      </cc:Work>
    </rdf:RDF>
  </metadata>
  <defs
     id="defs68" />
  <sodipodi:namedview
     pagecolor="#ffffff"
     bordercolor="#666666"
     borderopacity="1"
     objecttolerance="10"
     gridtolerance="10"
     guidetolerance="10"
     inkscape:pageopacity="0"
     inkscape:pageshadow="2"
     inkscape:window-width="1440"
     inkscape:window-height="875"
     id="namedview66"
     showgrid="false"
     inkscape:zoom="0.647"
     inkscape:cx="500"
     inkscape:cy="500"
     inkscape:window-x="0"
     inkscape:window-y="0"
     inkscape:window-maximized="1"
     inkscape:current-layer="svg64" />
  <path
     style="fill:#000000"
     d="M 470.37597,942.99229 C 448.54076,941.11045 440.4812,940.14828 424.49975,937.51546 248.85659,908.57958 105.46822,775.22116 63.852632,602.09544 51.144067,549.22633 48.092137,493.19827 54.973783,439.09544 71.169997,311.7624 142.47319,196.90057 249.87597,125.12885 c 20.8686,-13.94541 34.21373,-21.61514 55,-31.609688 46.69441,-22.45179 97.27244,-36.609543 150.5,-42.127809 16.41994,-1.702307 69.58006,-1.702307 86,0 88.18892,9.142818 168.86834,42.067349 237,96.717517 89.84484,72.06687 148.91423,177.3208 163.42727,291.20599 2.99137,23.47359 3.86292,41.38544 3.2737,67.28058 -0.60867,26.74993 -2.12221,42.91635 -6.27128,66.98472 -27.94075,162.08151 -144.53547,296.6417 -301.62027,348.09538 -27.89121,9.13587 -62.80898,16.60004 -93.30942,19.94624 -9.92732,1.08912 -64.87636,2.11372 -73.5,1.37051 z m 68.58939,-8.90861 c 54.66015,-5.19358 105.32155,-19.53623 153.91061,-43.57334 117.63444,-58.19398 202.2805,-164.29921 232.93164,-291.98365 7.64519,-31.84782 10.52039,-55.35176 11.25709,-92.02359 0.75574,-37.61914 -1.12022,-61.68513 -7.28117,-93.40766 C 908.77787,304.93812 848.57538,209.51536 759.55222,143.27371 698.34595,97.730462 627.45964,69.749594 548.37597,59.916372 c -20.79575,-2.585733 -79.20425,-2.585733 -100,0 -97.6484,12.141551 -181.39934,51.284898 -252.31282,117.925468 -71.76396,67.43981 -119.929253,161.25832 -133.097678,259.2536 -4.129172,30.728 -4.659145,82.48355 -1.131296,110.47901 8.383951,66.5314 29.396985,126.62994 63.233934,180.85289 72.67694,116.46313 194.32579,192.0523 330.80786,205.55468 19.49735,1.9289 63.29452,1.98249 83.08939,0.10166 z m -50.03157,-42.91962 c -5.35262,-1.98926 -8.50059,-4.46919 -12.05782,-9.499 -2.80649,-3.96828 -3,-4.83301 -3,-13.40576 0,-10.87674 0.48125,-11.98782 15.33385,-35.40183 l 9.66615,-15.23797 5.75,-0.012 c 3.1625,-0.007 5.75,0.19044 5.75,0.43789 0,0.24746 -3.30683,5.53496 -7.34851,11.75 -10.94441,16.82964 -10.71391,15.29317 -2.30123,15.33919 5.37686,0.0294 8.18923,0.58505 11.34181,2.24077 15.74553,8.26949 15.11211,34.1279 -1.0388,42.40723 -5.34797,2.74149 -16.55122,3.44197 -22.09545,1.38151 z m 16.45778,-9.42023 c 10.69855,-5.68522 10.67792,-21.01421 -0.0355,-26.39684 -10.2067,-5.128 -21.9801,1.96839 -21.9801,13.24845 0,11.33374 11.97358,18.48472 22.0156,13.14839 z M 302.62597,844.0293 c -2.3375,-1.40097 -4.25,-2.67708 -4.25,-2.83579 0,-0.35193 19.08402,-35.96017 19.52777,-36.43623 0.31945,-0.3427 9.47223,4.78965 9.47223,5.31149 0,0.1558 -1.94567,3.82554 -4.32372,8.15497 -2.37804,4.32944 -6.75283,12.4842 -9.72174,18.1217 -2.96891,5.6375 -5.63574,10.24574 -5.92628,10.24054 -0.29054,-0.005 -2.44076,-1.15571 -4.77826,-2.55668 z m 395.49795,-12.16366 c -2.40629,-3.72361 -7.42868,-11.6379 -11.16086,-17.58731 -7.47932,-11.92266 -7.45022,-10.94798 -0.45074,-15.09843 3.20849,-1.90252 1.91259,-3.41379 14.79998,17.25963 11.21116,17.98447 10.91808,16.42636 3.87519,20.60225 l -2.68849,1.59406 z M 152.86869,692.9928 c -1.46798,-2.50491 -2.51687,-4.67732 -2.33088,-4.82759 0.62703,-0.50661 26.29139,-14.28301 31.54805,-16.9347 l 5.20988,-2.62811 2.66161,4.54169 c 1.46389,2.49793 2.49444,4.69243 2.29011,4.87667 -0.52824,0.47632 -25.35361,13.79032 -31.54061,16.91543 l -5.16913,2.61098 z m 671.00728,-4.95181 c -9.35,-5.14422 -17.42843,-9.51673 -17.95206,-9.71669 -0.52363,-0.19996 0.28192,-2.46919 1.79011,-5.04273 l 2.74218,-4.67917 5.20988,2.62811 c 5.52126,2.78517 30.95172,16.44844 31.58138,16.96803 0.57711,0.47622 -4.86555,9.40973 -5.66364,9.29624 -0.38932,-0.0554 -8.35785,-4.30956 -17.70785,-9.45379 z M 292.14548,637.46696 c -14.85206,-2.19821 -24.54814,-16.27562 -23.56249,-34.20961 0.56121,-10.21133 3.67984,-17.206 10.85282,-24.34148 6.35392,-6.3207 13.12156,-9.68843 23.8296,-11.85816 7.22181,-1.46332 8.50501,-1.49639 9.75018,-0.25123 2.1758,2.17581 0.82747,4.0856 -4.40331,6.2369 -18.43506,7.58192 -24.38629,34.45471 -10.66829,48.17271 5.31262,5.31262 9.62047,6.34289 16.12871,3.85737 13.33221,-5.09162 24.69858,-24.21634 31.74887,-53.41973 l 2.52084,-10.44172 -5.13975,-5.9093 c -12.99202,-14.93724 -17.40971,-24.81476 -16.60533,-37.12789 0.77469,-11.85872 6.48521,-19.70929 15.37004,-21.13003 3.40955,-0.54521 4.49524,-0.24732 7.10642,1.94984 5.52251,4.64688 6.63794,9.1008 7.09204,28.31855 l 0.40684,17.21773 7.65165,8.83448 c 4.20841,4.85896 9.07656,10.61098 10.81812,12.78226 l 3.16647,3.94779 2.78037,-6.5 c 8.41629,-19.67576 22.8466,-46.40329 37.18957,-68.88175 7.37803,-11.56293 9.09879,-13.62956 12.66033,-15.205 7.36589,-3.25828 17.53679,-3.74513 17.53679,-0.83942 0,0.56964 -1.81239,4.0407 -4.02753,7.71345 -8.84703,14.66858 -13.29691,35.69595 -13.27146,62.71272 0.0253,26.82591 3.68173,47.23669 11.29816,63.06761 4.18951,8.70797 11.20376,16.33494 15.22849,16.55875 1.24979,0.0695 3.39734,0.182 4.77234,0.25 1.73028,0.0856 2.59264,0.77255 2.80089,2.23124 0.43847,3.07125 -4.71518,4.8945 -13.80089,4.88247 -6.44137,-0.009 -8.26538,-0.43199 -12.92246,-3 -15.44629,-8.51744 -25.45554,-34.14664 -28.26328,-72.36959 -1.05939,-14.42189 -0.22997,-35.09489 1.77015,-44.12048 1.42645,-6.43687 -19.9603,34.51707 -26.44983,50.64935 l -3.27824,8.14935 4.5085,7.85065 c 5.35431,9.32347 6.88265,14.53371 6.9094,23.55471 0.0161,5.4311 -0.53021,7.7961 -2.87718,12.45532 -3.67332,7.29229 -6.87802,9.67395 -13.01704,9.67395 -5.95203,0 -8.87143,-2.99997 -9.85109,-10.12301 -0.67475,-4.90603 0.6056,-17.28248 2.52547,-24.41233 1.21509,-4.51251 0.83939,-5.21909 -9.90759,-18.63331 l -7.47912,-9.33533 -3.24927,11.83533 c -6.01076,21.89389 -13.90827,36.94429 -24.56162,46.80741 -10.39105,9.62028 -22.13334,14.0207 -33.08729,12.39943 z m 205.23049,-37.37152 v -11.5 h 5.42857 c 7.06833,0 9.39291,2.1608 8.60634,8 -0.33857,2.51341 -1.83508,3.38506 -6.78945,3.95454 l -4.74546,0.54546 0.29388,5.25 c 0.23473,4.19323 -0.0169,5.25 -1.25,5.25 -1.30234,0 -1.54388,-1.79917 -1.54388,-11.5 z m 10.8,-2.7 c 3.03488,-3.03488 0.1367,-6.8 -5.23426,-6.8 -2.52379,0 -2.78796,0.47378 -2.78796,5 0,1.1 0.05,2.225 0.11111,2.5 0.22893,1.03018 6.75871,0.4524 7.91111,-0.7 z m 7.60991,6.7 c 0.0323,-5.38047 0.40469,-7.5 1.31758,-7.5 0.69988,0 1.27251,0.54 1.27251,1.2 0,0.93333 0.26667,0.93333 1.2,0 1.33541,-1.33541 4.8,-1.63801 4.8,-0.41924 0,0.42942 -1.35,1.29033 -3,1.91314 -2.84023,1.07206 -3,1.42991 -3,6.71924 0,3.95566 -0.3847,5.58686 -1.31758,5.58686 -0.977,0 -1.30593,-1.93869 -1.27251,-7.5 z m 11.59009,5.5 c -2.97766,-2.97766 -2.66668,-8.33043 0.63486,-10.92742 1.44917,-1.13992 3.94463,-2.07258 5.54545,-2.07258 3.65614,0 7.81969,3.99334 7.81969,7.5 0,6.26386 -9.50287,9.99713 -14,5.5 z m 10,-2 c 1.1,-1.1 2,-2.675 2,-3.5 0,-2.21964 -3.68072,-5.5 -6.17126,-5.5 -5.24999,0 -7.7483,6.54208 -3.60623,9.4433 2.99128,2.09517 5.37488,1.95931 7.77749,-0.4433 z m 12,3.30602 c -3.69566,-1.3208 -5.23015,-7.13895 -2.98785,-11.32873 1.27042,-2.37379 7.33875,-3.59407 10.56438,-2.12438 2.41752,1.1015 2.42347,1.08953 2.42347,-4.87435 0,-3.31904 0.44484,-5.97856 1,-5.97856 0.61333,0 1,4.83333 1,12.5 0,7.66667 -0.38667,12.5 -1,12.5 -0.55,0 -1,-0.46583 -1,-1.03518 0,-0.71358 -0.60093,-0.71358 -1.93426,0 -2.03875,1.0911 -5.55166,1.23971 -8.06574,0.3412 z m 7.77749,-2.86272 c 4.26411,-2.9867 1.41212,-9.4433 -4.17126,-9.4433 -2.61739,0 -5.60623,2.83957 -5.60623,5.32625 0,4.84829 5.45445,7.14502 9.77749,4.11705 z m 9.77921,1.33419 c -2.11688,-3.02227 -2.16017,-12.77749 -0.0567,-12.77749 1.16753,0 1.5,1.33682 1.5,6.03138 0,6.69807 1.25876,8.08301 5.56377,6.12152 2.15983,-0.98408 2.43623,-1.74591 2.43623,-6.71479 0,-4.0376 0.34952,-5.4892 1.25,-5.19145 1.58111,0.52281 2.34679,14.75334 0.79381,14.75334 -0.5741,0 -1.04381,-0.46583 -1.04381,-1.03518 0,-0.71358 -0.60093,-0.71358 -1.93426,0 -3.20009,1.71263 -6.83288,1.20573 -8.50904,-1.18733 z m 19.63186,0.18355 c -6.48863,-6.04508 2.2177,-16.77177 9.36874,-11.5428 2.55147,1.86568 1.25182,3.10401 -1.47227,1.40279 -1.77195,-1.1066 -2.54804,-1.07232 -4.84738,0.21413 -1.50571,0.84242 -2.88631,2.56625 -3.06801,3.83072 -0.64628,4.49764 5.52173,8.04275 8.61369,4.95079 1.66823,-1.66823 2.7707,-0.18917 1.23673,1.65916 -1.81253,2.18397 -7.23976,1.89979 -9.8315,-0.51479 z m 16.47811,1.37229 c -0.36667,-0.36666 -0.66667,-3.29166 -0.66667,-6.5 0,-5.16666 -0.22857,-5.83333 -2,-5.83333 -1.1,0 -2,-0.45 -2,-1 0,-0.55 0.9,-1 2,-1 1.46667,0 2,-0.66667 2,-2.5 0,-1.375 0.45,-2.5 1,-2.5 0.55,0 1,1.125 1,2.5 0,1.83333 0.53333,2.5 2,2.5 1.1,0 2,0.45 2,1 0,0.55 -0.9,1 -2,1 -1.73823,0 -2,0.66667 -2,5.09362 0,4.25262 0.33022,5.17997 2,5.61663 1.1,0.28766 2,0.92053 2,1.40638 0,1.02627 -4.34713,1.2029 -5.33333,0.2167 z m 9.33333,-6.83333 c 0,-4.33333 0.42222,-7.5 1,-7.5 0.57778,0 1,3.16667 1,7.5 0,4.33333 -0.42222,7.5 -1,7.5 -0.57778,0 -1,-3.16667 -1,-7.5 z m 10.5,6.30505 c -2.78004,-1.57645 -3.467,-2.83103 -3.48469,-6.36392 -0.0219,-4.3847 1.95839,-6.49379 6.69376,-7.12893 3.5251,-0.47282 4.52091,-0.17313 6.71491,2.02087 3.24885,3.24885 3.29394,7.03992 0.12147,10.21238 -2.64456,2.64457 -6.70521,3.15373 -10.04545,1.2596 z m 8.5,-2.80505 c 2.40692,-2.40692 2.50067,-3.84018 0.4433,-6.77749 -2.8584,-4.08093 -10.4433,-1.8267 -10.4433,3.10374 0,5.0829 6.28273,7.39102 10,3.67375 z m 8.19965,-3.5 c -0.0202,-5.80765 0.29278,-7.5 1.38712,-7.5 0.77728,0 1.41323,0.54 1.41323,1.2 0,0.93333 0.26667,0.93333 1.2,0 1.79324,-1.79324 6.26558,-1.44801 8.14501,0.62874 1.84511,2.03882 2.39871,13.17126 0.65499,13.17126 -0.55,0 -1,-2.05458 -1,-4.56574 0,-5.47282 -1.39176,-8.43426 -3.96376,-8.43426 -3.30091,0 -5.03624,2.78116 -5.03624,8.07143 0,3.53603 -0.39192,4.92857 -1.38712,4.92857 -1.0572,0 -1.39333,-1.78381 -1.41323,-7.5 z m 28.3541,5.96445 c -1.34577,-1.0178 -1.6258,-1.7924 -0.90762,-2.51058 0.71818,-0.71818 1.43358,-0.56275 2.3187,0.50375 2.42376,2.92046 9.03517,1.13786 9.03517,-2.4361 0,-2.05446 -3.48308,-5.00149 -5.97251,-5.05332 -2.38446,-0.0497 -4.83188,-2.34066 -5.54785,-5.19331 -1.33991,-5.3386 7.02726,-9.04959 12.07766,-5.35665 2.75086,2.01148 1.39383,2.76704 -2.39868,1.33553 -3.59095,-1.35543 -6.41364,-0.28491 -6.9912,2.65145 -0.48067,2.44384 1.24005,4.07911 5.91615,5.62236 2.624,0.866 4.42972,2.19228 4.98957,3.66479 1.06491,2.80093 -0.27493,6.78735 -2.57832,7.67125 -2.85095,1.09401 -7.91076,0.63635 -9.94107,-0.89917 z m 20.11292,0.86888 c -0.36667,-0.36666 -0.66667,-3.23918 -0.66667,-6.38337 0,-5.04144 -0.26577,-5.80453 -2.25,-6.46028 l -2.25,-0.74358 2.25,-0.4426 c 1.61227,-0.31715 2.25,-1.14821 2.25,-2.93207 0,-1.405 0.43562,-2.22023 1,-1.87143 0.55,0.33992 1,1.49148 1,2.55902 0,1.27431 0.68694,1.94098 2,1.94098 1.1,0 2,0.45 2,1 0,0.55 -0.9,1 -2,1 -1.73823,0 -2,0.66667 -2,5.09362 0,4.25262 0.33022,5.17997 2,5.61663 1.1,0.28766 2,0.92053 2,1.40638 0,1.02627 -4.34713,1.2029 -5.33333,0.2167 z m 9.89003,-1.55584 c -1.94705,-2.77981 -2.20102,-13.1567 -0.3067,-12.53182 0.75537,0.24918 1.36928,2.67659 1.55143,6.13445 0.33332,6.32752 1.64993,7.64652 5.76234,5.77278 2.15346,-0.98118 2.43623,-1.75089 2.43623,-6.63146 0,-4.2467 0.34707,-5.52144 1.50332,-5.52144 1.21415,0 1.48163,1.44264 1.39058,7.5 -0.062,4.125 -0.5135,7.5 -1.00332,7.5 -0.48982,0 -0.89058,-0.46583 -0.89058,-1.03518 0,-0.71358 -0.60093,-0.71358 -1.93426,0 -3.20009,1.71263 -6.83288,1.20573 -8.50904,-1.18733 z m 20.4433,1.52853 c -3.97236,-1.41969 -5.47728,-8.68588 -2.43007,-11.73309 2.26918,-2.26918 6.35443,-3.03996 9.60643,-1.81246 l 2.82364,1.0658 v -5.91313 c 0,-3.27543 0.44608,-5.91314 1,-5.91314 0.61333,0 1,4.83333 1,12.5 0,7.66667 -0.38667,12.5 -1,12.5 -0.55,0 -1,-0.46583 -1,-1.03518 0,-0.71358 -0.60093,-0.71358 -1.93426,0 -2.03875,1.0911 -5.55166,1.23971 -8.06574,0.3412 z m 7.77749,-2.86272 c 4.26411,-2.9867 1.41212,-9.4433 -4.17126,-9.4433 -2.61739,0 -5.60623,2.83957 -5.60623,5.32625 0,4.84829 5.45445,7.14502 9.77749,4.11705 z m 10.22251,-3.9433 c 0,-4.33333 0.42222,-7.5 1,-7.5 0.57778,0 1,3.16667 1,7.5 0,4.33333 -0.42222,7.5 -1,7.5 -0.57778,0 -1,-3.16667 -1,-7.5 z m 11,6.80602 c -3.44252,-1.23033 -5.36573,-7.71478 -3.23469,-10.90632 2.58734,-3.87489 9.35026,-4.37504 12.78014,-0.94515 6.11673,6.11672 -0.97048,14.91608 -9.54545,11.85147 z m 8,-3.30602 c 1.1,-1.1 2,-2.675 2,-3.5 0,-0.825 -0.9,-2.4 -2,-3.5 -5.30864,-5.30864 -13.36992,1.6188 -8.34501,7.17126 2.17198,2.40001 5.8492,2.32455 8.34501,-0.17126 z m 8.4427,2.58176 c -2.6405,-1.93078 -1.03338,-3.23584 1.99135,-1.61706 1.33706,0.71558 3.13639,1.03038 3.99849,0.69956 2.71381,-1.04138 1.70698,-3.46311 -1.94022,-4.66679 -4.42279,-1.45966 -6.11372,-4.23321 -3.91891,-6.42802 1.95211,-1.95212 5.4309,-2.018 7.98389,-0.15121 2.47093,1.80679 1.2942,3.13048 -1.32746,1.49323 -1.0807,-0.67491 -2.69952,-0.94522 -3.59737,-0.60068 -2.07557,0.79647 -2.1405,3.68921 -0.0828,3.68921 2.53095,0 7.45034,2.9411 7.45034,4.45425 0,3.98618 -6.67766,5.96437 -10.5573,3.12751 z m -151.4427,-19.58176 c 0,-0.55 0.45,-1 1,-1 0.55,0 1,0.45 1,1 0,0.55 -0.45,1 -1,1 -0.55,0 -1,-0.45 -1,-1 z m 124,0 c 0,-0.55 0.45,-1 1,-1 0.55,0 1,0.45 1,1 0,0.55 -0.45,1 -1,1 -0.55,0 -1,-0.45 -1,-1 z M 447.51663,572.88995 c -5.81203,-5.81204 -6.48869,-15.73069 -2.74893,-40.29451 1.55161,-10.19145 2.05988,-16.29289 1.48405,-17.8151 -1.17908,-3.11686 -1.26015,-2.93477 2.07456,-4.65922 4.1936,-2.1686 7.51039,-1.89391 10.7439,0.88976 2.72296,2.34417 2.80528,2.70565 2.78949,12.25 -0.0132,8.00384 -0.7232,12.6754 -3.81392,25.09547 -2.08872,8.39349 -3.51357,16.15599 -3.16635,17.25 2.07956,6.55209 8.74412,-3.46282 14.62498,-21.97712 l 2.37156,-7.46621 0.5,5.96621 0.5,5.96621 2.1873,-8 c 3.21372,-11.75415 3.26868,-13.01609 0.5627,-12.9206 -1.2375,0.0437 -2.25,0.002 -2.25,-0.0934 0,-0.91218 4.15624,-11.8874 5.44669,-14.38286 2.5063,-4.84664 8.44526,-11.00732 12.70723,-13.18161 4.01973,-2.05072 9.86432,-2.69553 13.60705,-1.50122 2.93022,0.93504 5.58504,6.06499 4.78609,9.24824 -0.51744,2.06168 -1.12878,2.40351 -3.83137,2.1423 -2.90888,-0.28115 -3.21455,-0.62454 -3.20373,-3.59916 0.01,-2.70962 -0.33609,-3.23761 -1.96564,-3 -6.2761,0.91513 -14.87682,29.07327 -13.13037,42.9879 0.80746,6.43336 4.09526,12.14717 7.25302,12.60489 6.52075,0.94518 11.84856,-16.6641 18.85063,-62.30443 4.74121,-30.90378 5.6426,-39.32841 4.44697,-41.56247 -2.31486,-4.32535 9.82203,-7.03858 13.46726,-3.01064 4.75357,5.25263 4.0036,15.68495 -4.06002,56.47656 -5.73693,29.02157 -7.17053,40.0948 -5.50643,42.53225 5.4377,7.9647 22.92126,-48.4833 18.78,-60.63371 -1.6354,-4.79825 9.70757,-6.90574 13.63014,-2.53243 0.85365,0.95174 1.96449,3.30544 2.46853,5.23044 l 0.91645,3.5 2.08145,-4 c 3.49581,-6.71804 8.99807,-12.34242 13.34997,-13.64629 3.51849,-1.05416 4.28956,-0.9629 6.69141,0.79195 7.18189,5.24727 8.37126,17.35092 3.87519,39.43593 -2.77058,13.60931 -2.63986,17.21025 0.60701,16.72088 2.80247,-0.42239 7.25609,-8.74481 11.84407,-22.13283 l 3.82775,-11.16964 -0.49064,8 -0.49064,8 2.54354,-8 c 1.39895,-4.4 2.8159,-9.6875 3.14878,-11.75 0.54523,-3.37829 0.38763,-3.75 -1.58997,-3.75 -1.68269,0 -2.05778,-0.43295 -1.60662,-1.85444 1.29145,-4.069 2.24703,-15.73423 1.4196,-17.32982 -1.2608,-2.43132 -1.17509,-2.60837 2.07694,-4.29006 4.18873,-2.16608 7.5093,-1.89455 10.73209,0.87758 2.54603,2.19 2.82596,3.10805 3.15464,10.34567 0.29357,6.46456 -0.29558,10.71567 -3.16627,22.84674 -4.43541,18.74331 -4.74667,20.6665 -3.63369,22.45143 2.33214,3.74011 8.61774,-6.33467 13.71501,-21.9829 l 2.74788,-8.4358 0.5,5.9358 0.5,5.9358 2.22442,-8 c 3.19746,-11.49947 3.26203,-13.01678 0.55,-12.92322 -1.88027,0.0649 -2.1395,-0.32302 -1.67083,-2.5 1.03882,-4.82537 7.25644,-16.56654 10.58141,-19.98162 8.0014,-8.21824 20.82761,-9.83903 24.32597,-3.07395 2.02547,3.91682 1.87393,5.59578 -0.66558,7.37453 -3.19029,2.23456 -6.18579,0.37689 -5.61903,-3.48468 0.33329,-2.27081 0.0414,-2.91106 -1.32697,-2.91106 -3.97291,0 -8.55935,9.67906 -12.08324,25.5 -3.24275,14.55878 -0.93661,28.67871 4.92422,30.14968 4.99657,1.25406 8.65619,-5.64497 13.20236,-24.88876 4.03722,-17.08942 5.43083,-26.8525 4.76033,-33.349 l -0.57463,-5.56764 3.3736,-1.40958 c 7.52204,-3.1429 13.50513,1.54792 13.47591,10.5653 -0.0237,7.30265 -6.13719,45.7517 -8.66569,54.5 l -0.57805,2 2.24594,-2 c 2.96156,-2.63724 12.18821,-21.90354 15.32484,-32 3.54214,-11.40171 12.02412,-62.98801 12.11842,-73.70262 0.071,-8.0707 0.24339,-8.77867 2.37365,-9.75 4.12573,-1.8812 8.65469,-1.26084 11.27864,1.54489 2.25971,2.41626 2.40885,3.24801 2.19656,12.25 -0.12526,5.31175 -1.28377,15.62023 -2.57447,22.90773 -1.2907,7.2875 -2.29961,13.25 -2.24202,13.25 0.0576,0 1.82187,-2.3625 3.92062,-5.25 4.48786,-6.17447 7.42708,-8.56069 11.56367,-9.38801 2.51932,-0.50386 3.5812,-0.0407 6.42345,2.80151 6.22641,6.22641 6.9357,16.44203 2.60349,37.49692 -2.62442,12.75491 -2.61901,17.33958 0.0205,17.33958 3.41126,0 10.02971,-12.93478 14.32699,-28 1.70194,-5.9666 8.90597,-51.11291 8.25931,-51.75957 -0.57808,-0.57809 -15.03633,3.60148 -20.43666,5.9078 -6.25221,2.67006 -10.13713,6.51734 -10.13713,10.03881 0,2.09325 -0.48431,2.81291 -1.89301,2.81291 -3.05089,0 -5.40674,-7.33052 -3.99685,-12.43672 1.91159,-6.9232 10.85629,-11.58289 28.75043,-14.97735 4.57443,-0.86775 8.75526,-1.8485 9.29073,-2.17944 0.53548,-0.33094 0.87438,-3.99933 0.75313,-8.15197 -0.1854,-6.34965 0.0736,-7.76528 1.62869,-8.90239 1.9319,-1.41265 7.14483,-1.79668 9.92208,-0.73095 2.52122,0.96749 4.5448,5.82456 4.5448,10.90862 v 4.62911 l 3.25,-0.69475 c 6.47389,-1.38391 18.33912,-5.511 22.25,-7.73922 2.45176,-1.39689 4.12369,-3.13942 4.31955,-4.50197 0.40094,-2.78915 3.70546,-2.97901 5.14168,-0.29541 1.47006,2.74683 0.38798,4.73794 -4.33155,7.97034 -6.10508,4.18136 -12.06538,7.05104 -22.12968,10.65469 -7.56621,2.70917 -9.05309,3.59891 -9.33323,5.58498 -0.18327,1.29934 -2.99577,15.97149 -6.25,32.60479 -5.83792,29.83937 -7.04164,40.4444 -4.75126,41.85993 0.68243,0.42176 2.13636,-0.48636 3.50781,-2.19098 2.95173,-3.66878 9.55355,-20.5882 11.98028,-30.70354 1.39795,-5.82708 2.2571,-7.69773 3.53738,-7.70206 2.80826,-0.009 2.8465,1.31518 0.31141,10.78799 -6.5273,24.39041 -14.90547,38.18844 -23.19663,38.20256 -3.43738,0.006 -7.28995,-4.04172 -9.19045,-9.65565 l -1.73922,-5.13751 -3.17376,6.8121 c -7.49333,16.08357 -17.16756,19.46124 -22.95233,8.01361 -3.13626,-6.20642 -3.04534,-18.06445 0.26609,-34.70686 2.55515,-12.84154 2.52717,-16.32195 -0.13123,-16.32195 -3.68101,0 -12.14503,14.18623 -16.71416,28.01401 -2.97242,8.99555 -5.85591,28.06984 -5.02107,33.21435 0.53165,3.27618 0.30794,3.83385 -1.95081,4.86301 -5.49004,2.50143 -10.38233,-1.31291 -11.3982,-8.88673 l -0.51928,-3.87157 -4.8859,9.58347 c -2.68724,5.2709 -7.16254,12.36266 -9.94511,15.75945 l -5.05922,6.176 -1.99504,12.824 c -2.48583,15.97874 -4.20348,18.97505 -13.39607,23.3684 -10.45607,4.99719 -22.35504,-0.51717 -20.14204,-9.33446 0.67896,-2.70521 3.31352,-5.63827 13.27555,-14.77969 6.0423,-5.54457 6.07494,-5.60467 7.21812,-13.29085 0.6316,-4.2466 1.14837,-8.17391 1.14837,-8.72736 0,-0.55345 -1.82775,0.46254 -4.06166,2.25776 -3.4675,2.78656 -4.82443,3.25301 -9.27594,3.18867 -8.32339,-0.12032 -14.40575,-4.5034 -16.20669,-11.6789 -0.74951,-2.98629 -2.45571,-4.62208 -2.45571,-2.35437 0,2.87911 -8.13688,17.6122 -11.10746,20.11178 -7.79307,6.55743 -14.33202,3.47505 -17.30734,-8.15848 l -1.22213,-4.77849 -1.89723,4.95906 c -1.04348,2.72748 -3.63164,7.55634 -5.75146,10.73081 -3.06474,4.58948 -4.66649,6.01511 -7.81964,6.95981 -3.5054,1.05025 -4.27235,0.95889 -6.61145,-0.7875 -1.45533,-1.08655 -3.57693,-3.75005 -4.71467,-5.91887 -2.77469,-5.28925 -2.64767,-19.16359 0.30031,-32.80339 2.79118,-12.91428 2.82797,-17.63992 0.13734,-17.63992 -4.93513,0 -14.65121,19.14306 -18.95946,37.35478 -3.92557,16.59413 -4.48658,20.95499 -3.04282,23.65268 1.01053,1.88819 0.88444,2.54855 -0.81019,4.24319 -4.45728,4.45727 -13.13566,-0.9619 -13.21277,-8.25065 -0.0205,-1.93698 -0.80008,-1.06437 -3.46159,3.87468 -4.99296,9.26558 -9.23166,13.12532 -14.41402,13.12532 -2.94865,0 -7.00761,-3.97359 -8.48786,-8.30934 l -1.30052,-3.80934 -1.79989,4.71294 c -6.49676,17.01153 -25.14177,19.2045 -32.20002,3.78727 l -2.54817,-5.56595 -2.23526,5.49972 c -5.02887,12.37326 -9.95805,18.39247 -15.84391,19.34761 -3.06336,0.49712 -4.03498,0.14575 -6.54913,-2.3684 z M 654.5527,559.51726 c 0.9222,-1.882 1.99828,-6.10319 2.39129,-9.38042 l 0.71455,-5.95861 -6.65616,5.84379 c -8.4535,7.42176 -9.94848,12.35079 -4.39858,14.50232 2.98932,1.15887 5.79287,-0.60711 7.9489,-5.00708 z M 232.11256,548.595 c -7.9418,-1.01723 -17.72657,-6.04522 -22.6506,-11.63921 -14.06883,-15.98304 -11.25833,-46.6945 5.44711,-59.52272 6.16971,-4.73776 11.64795,-6.22234 20.72139,-5.61541 8.29357,0.55477 15.05568,3.32456 19.84439,8.12835 4.23537,4.2487 5.90112,8.50947 5.90112,15.09426 0,4.80551 -0.32653,5.72301 -2.55684,7.18437 -3.23559,2.12004 -11.48179,2.95568 -14.29735,1.44884 -1.85291,-0.99165 -2.14581,-2.0262 -2.14581,-7.5793 0,-10.34474 -4.01872,-16.15505 -11.90534,-17.21287 -7.14314,-0.9581 -16.02967,5.85781 -20.42173,15.66332 -2.86215,6.3899 -3.4589,19.83536 -1.22188,27.53042 2.4599,8.46175 9.81329,15.59507 19.00179,18.43311 10.777,3.32867 19.65506,2.53996 30.37135,-2.69817 7.9137,-3.86822 15.50347,-11.18146 19.12444,-18.42767 2.74456,-5.49234 3.05137,-7.04029 3.05137,-15.39498 0,-16.03731 -4.7032,-27.41988 -24.54034,-59.3919 -16.77916,-27.04339 -21.25277,-39.41966 -18.68095,-51.68089 2.27868,-10.8637 8.32952,-16.15883 21.20011,-18.55236 25.86129,-4.80942 56.9962,22.04371 51.07115,44.04767 -1.33932,4.97386 -4.82146,7.19316 -11.25031,7.17027 -6.90489,-0.0246 -7.35283,-0.68165 -5.92221,-8.6869 1.95135,-10.91913 -0.91101,-20.13306 -8.54272,-27.49896 -9.34997,-9.02433 -21.33473,-8.86993 -21.33473,0.27485 0,8.25339 10.57984,31.26529 25.02278,54.42632 13.62604,21.85104 19.26885,35.50834 20.53792,49.708 1.32163,14.78773 -2.92407,26.12625 -13.51811,36.10136 -8.18187,7.70387 -16.07915,11.95302 -28.16172,15.15246 -7.64969,2.02562 -25.85236,4.89752 -27.88087,4.39886 -0.275,-0.0676 -3.09353,-0.45511 -6.26341,-0.86112 z M 107.37597,494.59544 c 0,-16.94312 0.1221,-18.16578 1.75,-17.52324 0.9625,0.3799 11.3125,4.33228 23,8.78306 11.6875,4.45078 21.25,8.38386 21.25,8.74018 0,0.35632 -9.5625,4.2894 -21.25,8.74018 -11.6875,4.45078 -22.0375,8.40316 -23,8.78306 -1.6279,0.64254 -1.75,-0.58012 -1.75,-17.52324 z m 782,13.88378 c -4.125,-1.61113 -14.1375,-5.50547 -22.25,-8.65409 -8.1125,-3.14862 -14.75,-6.02107 -14.75,-6.38323 0,-0.36215 1.9125,-1.33531 4.25,-2.16258 3.45037,-1.22112 33.24846,-12.55105 40,-15.20893 1.6276,-0.64074 1.75,0.57753 1.75,17.41806 0,9.95885 -0.3375,18.06494 -0.75,18.01354 -0.4125,-0.0514 -4.125,-1.41164 -8.25,-3.02277 z m -437.5,-7.80511 c -1.1,-0.46344 -2.85926,-1.79795 -3.90947,-2.96559 -1.77759,-1.97636 -1.81934,-2.60066 -0.60442,-9.03947 1.44377,-7.65167 2.57572,-8.60535 8.28809,-6.98273 6.7791,1.92562 7.8983,4.21277 6.317,12.90912 -1.17327,6.45236 -1.20725,6.50154 -4.63657,6.71064 -1.90004,0.11585 -4.35463,-0.16853 -5.45463,-0.63197 z m -123.89304,-20.1732 c -1.46452,-1.15199 -3.6627,-3.96449 -4.88486,-6.25 -2.00578,-3.75094 -2.22045,-5.56702 -2.20515,-18.65547 0.0122,-10.41365 0.62487,-17.88181 2.1741,-26.5 3.1874,-17.73114 3.53881,-21.20198 2.3681,-23.38948 -1.47674,-2.75931 -0.40957,-4.79271 3.17025,-6.04064 4.35359,-1.51767 8.96066,-1.32549 11.54036,0.4814 7.14732,5.00619 7.36586,17.23312 0.77659,43.44872 -5.87456,23.37206 -6.37617,29 -2.58471,29 0.95061,0 2.45877,-0.80707 3.35146,-1.79348 4.23564,-4.68032 14.02569,-29.62522 17.15338,-43.70652 0.73299,-3.3 1.37788,-4.93872 1.43311,-3.64159 0.0843,1.98056 0.48829,2.26106 2.52143,1.75077 l 2.42102,-0.60764 -2.84511,10.74923 c -6.41096,24.22155 -15.10965,41.22544 -23.20159,45.35364 -4.80453,2.45109 -7.88915,2.39624 -11.18838,-0.19894 z m 35.96447,-7.4769 c -0.86429,-0.86428 -1.57143,-2.21428 -1.57143,-3 0,-2.31784 3.95168,-5.66225 5.82732,-4.9318 0.91997,0.35828 2.07581,0.73057 2.56853,0.82732 1.80203,0.35385 8.63728,-10.0141 15.65517,-23.74632 l 7.19448,-14.07777 -5.51408,-12.78659 c -6.34245,-14.70752 -10.07447,-20.90274 -12.1192,-20.1181 -1.95998,0.75212 -6.21466,10.63707 -8.27696,19.22999 -1.27328,5.30535 -2.1047,7.09341 -3.11759,6.70473 -0.75968,-0.29151 -1.98698,-0.53003 -2.72733,-0.53003 -2.21919,0 4.28285,-22.45734 8.34062,-28.80761 3.65224,-5.71561 14.04961,-7.82445 21.02709,-4.26481 4.19653,2.14091 10.18377,8.31883 12.61106,13.01268 0.87024,1.68286 1.78811,3.05974 2.03972,3.05974 0.25161,0 1.65069,-2.3625 3.10907,-5.25 7.53072,-14.91041 17.23421,-26.92183 22.89718,-28.34314 2.94909,-0.74018 6.48492,1.80974 6.48492,4.6767 0,2.47781 -2.70579,4.91644 -5.45507,4.91644 -4.08259,0 -11.87892,10.38741 -19.58531,26.09442 l -3.23544,6.59442 3.50737,9.40558 c 1.92906,5.17307 4.9723,13.45558 6.76277,18.40558 4.74329,13.11347 5.55249,13.76226 9.45477,7.58065 5.36261,-8.49492 12.39541,-27.22815 15.79392,-42.07018 0.9131,-3.98769 1.77137,-5.58771 3.13716,-5.84839 3.21544,-0.61372 3.42426,1.68458 1.06148,11.68239 -6.0081,25.42256 -17.26872,46.65925 -26.01861,49.06919 -7.08626,1.95174 -14.7412,-3.53501 -21.90726,-15.7022 l -4.2927,-7.28855 -4.10264,7.47523 c -12.89847,23.50168 -23.76741,33.81204 -29.54901,28.03043 z m 244.92857,-11.3499 c -1.1,-0.46344 -2.85926,-1.79795 -3.90947,-2.96559 -1.77792,-1.97672 -1.81947,-2.59996 -0.60309,-9.04649 1.51434,-8.02572 3.23047,-9.16357 9.83506,-6.52093 5.39262,2.1577 6.39041,4.78801 4.79547,12.64163 -1.25914,6.20013 -1.34297,6.31647 -4.69999,6.52335 -1.87989,0.11585 -4.31798,-0.16853 -5.41798,-0.63197 z M 496.73629,440.13527 c -3.83631,-2.68706 -4.70279,-6.74239 -4.0273,-18.8487 0.34344,-6.15512 1.74557,-18.14206 3.11585,-26.63765 1.37029,-8.49559 2.31729,-15.62065 2.10446,-15.83348 -0.88231,-0.88231 -16.33913,4.07053 -19.80333,6.34561 -2.94616,1.93485 -3.75,3.1028 -3.75,5.44858 0,1.95551 -0.50546,2.98581 -1.46482,2.98581 -2.03807,0 -3.53518,-3.19067 -3.53518,-7.53426 0,-7.25048 8.08413,-11.84676 26.24194,-14.92001 4.29563,-0.72705 5.35923,-3.02703 4.46901,-9.6641 -0.47863,-3.56847 -0.27022,-4.0987 1.94153,-4.9396 6.07912,-2.31128 10.34752,0.53141 10.34752,6.8913 0,2.10834 0.2506,4.08393 0.55688,4.39022 0.80949,0.80949 10.77797,-1.95461 17.04566,-4.72648 4.00461,-1.77103 5.39746,-2.91733 5.39746,-4.44204 0,-2.52632 3.75323,-2.86167 4.69053,-0.41911 1.43068,3.72829 -5.03596,8.30832 -18.95733,13.42661 -6.65476,2.44667 -8.88259,3.73082 -9.2474,5.33033 -0.26433,1.15892 -2.50677,12.56777 -4.9832,25.35299 -4.44069,22.9262 -5.38859,31.58854 -3.57907,32.70689 2.52852,1.56271 8.56346,-11.98375 13.08477,-29.37101 1.88072,-7.23251 4.04061,-13.04808 5.75168,-15.48654 4.21343,-6.00457 9.45822,-9.75375 14.41532,-10.30462 3.66841,-0.40766 4.67865,-0.10164 6.65708,2.01655 3.0994,3.31837 2.65103,7.19288 -0.83238,7.19288 -2.07016,0 -2.49322,-0.47282 -2.46058,-2.75 0.0733,-5.11141 -3.15753,-3.34196 -6.3906,3.5 -3.62375,7.66873 -5.34885,15.77402 -5.26494,24.737 0.0721,7.69739 1.47754,11.67555 4.45928,12.62192 2.98099,0.94612 5.84737,-2.92646 8.58387,-11.59712 l 2.31131,-7.32342 -2.14538,-1.61826 c -2.94822,-2.22385 -3.84259,-8.17763 -1.56984,-10.45038 0.98942,-0.98942 2.85026,-1.59823 4.3526,-1.42403 2.19161,0.25412 2.7796,1.00499 3.56634,4.55429 0.51813,2.3375 1.3487,4.25 1.84571,4.25 2.43996,0 6.95443,-3.87692 8.44286,-7.25053 1.64752,-3.73419 3.49976,-4.47259 4.05425,-1.61624 0.54536,2.80935 -4.29952,8.337 -9.52452,10.86677 -4.80466,2.32625 -5.2448,2.84749 -6.33321,7.5 -1.61129,6.88761 -6.67028,16.18091 -10.1618,18.66708 -3.51533,2.50314 -9.864,2.65352 -13.42833,0.31809 -1.37489,-0.90087 -3.49668,-3.78957 -4.71507,-6.41935 l -2.21526,-4.78141 -1.84381,4.6078 c -2.77464,6.934 -6.62073,12.71075 -9.65668,14.50413 -3.35692,1.98298 -4.87833,2.01191 -7.54588,0.14349 z M 331.33893,387.34544 c -6.18544,-3.11989 -6.93489,-5.77481 -4.39223,-15.55933 l 1.99855,-7.69067 3.69018,-0.30886 c 4.41039,-0.36915 10.30141,2.20903 12.41369,5.43278 1.32817,2.02704 1.35704,3.40922 0.22531,10.78615 -1.08766,7.08962 -1.63042,8.55044 -3.34827,9.0119 -3.68087,0.98876 -6.05564,0.61373 -10.58723,-1.67197 z M 167.87597,315.97093 c -9.9,-5.28915 -18.16717,-9.76705 -18.37149,-9.95089 -0.20433,-0.18384 0.82622,-2.37802 2.29011,-4.87595 l 2.66161,-4.54169 5.20988,2.62811 c 5.52126,2.78517 30.95172,16.44844 31.58138,16.96803 0.33763,0.27861 -4.67792,9.40217 -5.16364,9.39296 -0.11432,-0.002 -8.30785,-4.33142 -18.20785,-9.62057 z m 638.99416,5.02433 c -1.46877,-2.50626 -2.51831,-4.69257 -2.33232,-4.85848 0.51167,-0.45641 25.60228,-13.89941 31.54805,-16.90275 l 5.20988,-2.63163 2.66161,4.54169 c 1.46389,2.49793 2.49444,4.68394 2.29011,4.8578 -0.47982,0.40829 -27.08177,14.66028 -32.53917,17.43286 l -4.16768,2.11734 z M 305.63279,196.33484 c -0.53377,-0.68167 -5.56306,-8.5942 -11.17622,-17.58341 -11.2299,-17.98415 -10.93556,-16.42612 -3.89212,-20.60233 l 2.68849,-1.59406 4.70538,7.2702 c 16.68308,25.77676 17.77015,27.79152 15.783,29.25175 -4.96892,3.65135 -7.1228,4.51673 -8.10853,3.25785 z m 368.0023,-8.3001 -4.24088,-2.54178 2.62247,-5.19876 c 2.78088,-5.51281 16.44333,-30.94123 16.96239,-31.57025 0.32413,-0.3928 9.3969,4.71661 9.3969,5.29195 0,0.18488 -1.94567,3.87841 -4.32372,8.20784 -2.37804,4.32944 -6.75283,12.4842 -9.72174,18.1217 -2.96891,5.6375 -5.63574,10.24574 -5.92628,10.24054 -0.29054,-0.005 -2.43666,-1.15326 -4.76914,-2.55124 z M 465.37597,142.51585 v -31.0796 l -6.75,6.10013 -6.75,6.10012 -2.72131,-3.27053 c -1.49671,-1.79879 -2.62171,-3.54928 -2.5,-3.88997 0.12172,-0.3407 4.58477,-4.2782 9.9179,-8.75 9.0209,-7.564 10.01387,-8.130558 14.25,-8.130558 h 4.55341 v 36.999998 37 h -5 -5 z m 35,25.31856 v -5.76103 l 17.10209,-16.98897 c 9.40614,-9.34393 17.73114,-18.43702 18.5,-20.20685 2.04597,-4.70967 1.76506,-10.54564 -0.65574,-13.62319 -2.52775,-3.21352 -8.5638,-5.14088 -13.31098,-4.2503 -4.0447,0.75879 -9.63537,5.78834 -9.63537,8.66829 0,2.0872 -1.71939,2.3609 -8.15024,1.29742 l -3.65023,-0.60365 1.52559,-4.47737 c 3.35232,-9.8385 13.30548,-15.139958 26.16914,-13.938738 12.42952,1.16069 20.11779,8.853298 20.09597,20.107308 -0.0176,9.09273 -3.15623,13.79615 -20.68033,30.99091 l -15.8099,15.51279 18.25,0.0172 18.25,0.0172 v 4.5 4.5 h -24 -24 z"
     id="path74"
     inkscape:connector-curvature="0" />
</svg>
